<svg id="svg" xmlns="http://www.w3.org/2000/svg" xmlns:xlink="http://www.w3.org/1999/xlink" width="400" height="347.13375796178343" viewBox="0, 0, 400,347.13375796178343"><g id="svgg"><path id="path0" d="M79.760 59.245 C 79.244 59.761,79.553 60.069,80.584 60.069 C 81.286 60.069,81.606 59.920,81.512 59.635 C 81.350 59.143,80.133 58.872,79.760 59.245 M82.185 59.250 C 81.742 59.693,82.359 60.069,83.527 60.069 C 84.358 60.069,84.722 59.911,84.722 59.549 C 84.722 59.020,82.658 58.777,82.185 59.250 M336.806 59.549 C 336.806 59.912,337.172 60.069,338.021 60.069 C 338.870 60.069,339.236 59.912,339.236 59.549 C 339.236 59.185,338.870 59.028,338.021 59.028 C 337.172 59.028,336.806 59.185,336.806 59.549 M339.931 59.549 C 339.931 59.873,340.258 60.069,340.799 60.069 C 341.339 60.069,341.667 59.873,341.667 59.549 C 341.667 59.225,341.339 59.028,340.799 59.028 C 340.258 59.028,339.931 59.225,339.931 59.549 M306.250 64.751 C 304.245 65.014,301.979 65.384,301.215 65.573 C 300.451 65.762,297.170 66.096,293.924 66.316 C 289.782 66.596,287.192 66.954,285.243 67.517 C 283.715 67.957,280.750 68.591,278.654 68.924 C 276.558 69.258,274.247 69.741,273.517 69.998 C 272.788 70.256,271.378 70.565,270.384 70.685 C 269.390 70.805,267.405 71.259,265.972 71.693 C 264.540 72.128,262.047 72.672,260.432 72.903 C 258.817 73.134,256.942 73.604,256.265 73.948 C 255.588 74.291,254.097 74.754,252.951 74.975 C 251.806 75.196,250.009 75.677,248.958 76.043 C 247.908 76.410,245.910 76.949,244.518 77.242 C 243.126 77.534,241.563 77.991,241.046 78.257 C 240.528 78.523,239.167 78.929,238.021 79.160 C 236.875 79.391,235.234 79.897,234.375 80.285 C 233.516 80.673,231.641 81.353,230.208 81.797 C 225.872 83.139,223.188 84.059,221.181 84.893 C 220.130 85.330,218.651 85.796,217.893 85.929 C 217.134 86.062,215.871 86.548,215.084 87.009 C 214.298 87.470,213.431 87.847,213.159 87.847 C 212.886 87.847,211.716 88.309,210.559 88.874 C 209.402 89.438,207.688 90.072,206.750 90.282 C 205.813 90.492,204.786 90.900,204.468 91.188 C 204.150 91.476,203.131 91.918,202.205 92.170 C 200.454 92.647,199.154 93.163,198.264 93.736 C 197.579 94.177,193.642 95.773,191.667 96.411 C 190.807 96.688,189.401 97.279,188.542 97.724 C 187.682 98.169,186.432 98.644,185.764 98.779 C 184.657 99.003,182.277 100.030,177.623 102.291 C 176.678 102.750,175.654 103.125,175.347 103.125 C 175.039 103.125,174.263 103.512,173.623 103.985 C 172.982 104.457,171.920 105.021,171.264 105.238 C 170.104 105.621,165.290 107.868,163.542 108.843 C 163.064 109.109,161.424 109.892,159.896 110.583 C 158.368 111.274,156.649 112.095,156.076 112.407 C 155.503 112.720,154.253 113.356,153.299 113.822 C 152.344 114.288,151.328 114.864,151.042 115.102 C 150.755 115.341,149.702 115.802,148.702 116.128 C 147.702 116.453,146.784 116.880,146.663 117.076 C 146.542 117.272,145.886 117.665,145.205 117.949 C 144.525 118.233,143.489 118.821,142.904 119.255 C 142.319 119.688,141.326 120.215,140.696 120.425 C 140.067 120.636,139.130 121.106,138.613 121.470 C 138.096 121.833,137.283 122.249,136.806 122.393 C 136.328 122.537,135.078 123.179,134.028 123.820 C 132.264 124.896,129.383 126.446,124.132 129.145 C 120.489 131.018,118.317 132.437,117.584 133.425 L 116.872 134.384 118.766 136.198 C 122.458 139.732,128.641 144.811,130.129 145.532 L 131.639 146.263 132.399 145.569 C 132.818 145.187,133.863 144.537,134.722 144.125 C 135.582 143.712,137.222 142.845,138.368 142.198 C 139.514 141.551,141.155 140.688,142.014 140.279 C 142.873 139.871,143.889 139.260,144.271 138.922 C 144.653 138.584,145.512 138.100,146.181 137.846 C 146.849 137.593,147.630 137.194,147.917 136.959 C 148.203 136.725,150.313 135.571,152.604 134.395 C 154.896 133.219,158.958 131.128,161.632 129.748 C 164.306 128.368,167.118 126.975,167.882 126.652 C 168.646 126.329,169.505 125.911,169.792 125.722 C 170.078 125.533,171.016 125.057,171.875 124.664 C 172.734 124.271,173.828 123.723,174.306 123.448 C 174.783 123.172,176.658 122.305,178.472 121.522 C 180.286 120.738,182.005 119.947,182.292 119.764 C 182.578 119.580,183.359 119.195,184.028 118.908 C 184.696 118.621,186.181 117.921,187.326 117.353 C 188.472 116.784,189.660 116.319,189.966 116.319 C 190.271 116.319,191.287 115.910,192.223 115.408 C 193.158 114.907,194.766 114.205,195.796 113.848 C 196.825 113.490,197.841 113.062,198.052 112.895 C 198.264 112.729,199.373 112.247,200.517 111.826 C 201.660 111.404,202.754 110.930,202.947 110.773 C 203.140 110.616,204.121 110.245,205.126 109.949 C 206.132 109.652,207.694 109.018,208.599 108.539 C 211.988 106.745,214.466 105.637,215.634 105.393 C 216.298 105.254,217.383 104.828,218.047 104.446 C 218.711 104.063,220.244 103.543,221.454 103.290 C 222.664 103.037,224.039 102.577,224.510 102.269 C 225.426 101.669,229.882 100.071,233.854 98.919 C 235.190 98.531,236.753 97.929,237.326 97.581 C 237.899 97.233,239.227 96.839,240.278 96.705 C 241.328 96.572,242.714 96.159,243.358 95.787 C 244.002 95.416,245.721 94.822,247.178 94.466 C 248.635 94.111,250.721 93.492,251.814 93.091 C 252.908 92.689,254.131 92.361,254.533 92.361 C 254.935 92.361,256.228 91.978,257.406 91.511 C 258.584 91.043,261.063 90.419,262.915 90.124 C 264.766 89.829,267.077 89.275,268.049 88.891 C 269.022 88.508,270.319 88.192,270.933 88.188 C 271.547 88.185,273.820 87.722,275.985 87.159 C 278.724 86.447,281.470 86.025,285.013 85.772 C 287.813 85.572,290.885 85.221,291.840 84.992 C 294.599 84.330,303.443 84.438,307.118 85.179 C 312.463 86.256,312.737 86.372,315.026 88.523 L 317.188 90.554 317.309 93.915 C 317.520 99.781,316.309 102.425,309.429 111.111 C 306.381 114.960,298.231 122.896,297.297 122.924 C 297.160 122.928,296.177 123.749,295.112 124.747 C 294.047 125.746,292.250 127.265,291.119 128.123 C 289.988 128.981,287.969 130.580,286.632 131.674 C 282.436 135.111,282.031 135.417,281.679 135.417 C 281.490 135.417,281.133 135.660,280.886 135.958 C 280.312 136.649,276.727 139.381,275.649 139.947 C 275.196 140.185,274.327 140.786,273.716 141.284 C 273.106 141.781,271.969 142.656,271.191 143.229 C 270.412 143.802,269.139 144.779,268.362 145.399 C 267.584 146.020,266.748 146.528,266.503 146.528 C 266.258 146.528,265.850 146.778,265.596 147.084 C 265.342 147.390,264.346 148.155,263.383 148.784 C 261.166 150.234,259.579 151.747,259.954 152.056 C 261.304 153.167,264.180 155.208,264.397 155.208 C 264.805 155.208,267.562 156.972,269.148 158.247 C 269.920 158.867,270.732 159.375,270.953 159.375 C 271.174 159.376,272.370 160.084,273.611 160.949 C 278.430 164.308,280.586 165.625,281.267 165.625 C 281.593 165.625,282.072 165.369,282.331 165.057 C 282.590 164.745,283.351 164.131,284.023 163.693 C 284.694 163.256,286.102 162.265,287.153 161.493 C 288.203 160.720,289.609 159.786,290.278 159.419 C 290.946 159.051,292.073 158.304,292.781 157.760 C 293.489 157.216,294.634 156.380,295.324 155.903 C 296.015 155.425,297.263 154.488,298.097 153.819 C 298.932 153.151,300.349 152.057,301.246 151.389 C 302.143 150.720,303.155 149.912,303.496 149.592 C 303.836 149.273,304.477 148.818,304.922 148.582 C 305.366 148.345,306.120 147.781,306.597 147.327 C 310.418 143.694,318.536 136.258,319.346 135.649 C 321.390 134.112,330.219 124.976,336.179 118.229 C 336.517 117.847,337.733 116.519,338.882 115.278 C 340.032 114.036,340.972 112.904,340.972 112.760 C 340.972 112.617,341.279 112.193,341.655 111.817 C 342.030 111.442,342.738 110.543,343.227 109.821 C 344.580 107.824,345.783 106.122,346.160 105.673 C 346.747 104.972,349.653 99.356,349.653 98.921 C 349.653 98.692,350.027 97.708,350.484 96.735 C 351.402 94.779,351.808 92.896,352.456 87.588 C 352.879 84.118,352.825 83.217,351.895 78.299 C 351.717 77.356,349.027 73.264,348.586 73.264 C 348.391 73.264,347.863 72.895,347.412 72.443 C 345.211 70.242,338.039 66.855,333.681 65.958 C 331.675 65.545,329.410 65.062,328.646 64.885 C 326.178 64.314,310.302 64.218,306.250 64.751 M93.973 147.369 C 93.669 147.832,93.066 148.320,92.631 148.453 C 91.668 148.749,87.412 151.526,86.809 152.253 C 86.569 152.542,86.170 152.778,85.922 152.778 C 85.673 152.778,84.753 153.325,83.878 153.993 C 83.002 154.661,82.155 155.208,81.995 155.208 C 81.836 155.208,81.407 155.537,81.043 155.940 C 80.680 156.342,79.835 156.973,79.167 157.343 C 77.894 158.046,76.349 159.077,74.306 160.589 C 73.637 161.083,71.997 162.260,70.660 163.205 C 69.323 164.149,68.073 165.041,67.882 165.187 C 67.691 165.332,67.144 165.652,66.667 165.898 C 66.189 166.144,64.939 167.116,63.889 168.058 C 62.839 169.001,61.471 170.046,60.851 170.381 C 60.230 170.717,59.722 171.108,59.722 171.251 C 59.722 171.393,59.214 171.770,58.594 172.087 C 57.973 172.404,56.918 173.119,56.250 173.675 C 51.718 177.444,49.558 179.168,49.360 179.174 C 49.235 179.178,47.888 180.350,46.367 181.778 C 44.846 183.206,43.412 184.375,43.180 184.375 C 42.949 184.375,42.709 184.570,42.647 184.809 C 42.585 185.048,41.128 186.546,39.410 188.140 C 34.847 192.369,29.688 197.493,28.019 199.454 C 27.218 200.395,25.580 202.270,24.379 203.621 C 23.179 204.971,21.890 206.467,21.515 206.944 C 21.141 207.422,20.387 208.359,19.840 209.028 C 19.294 209.696,18.588 210.748,18.272 211.365 C 17.955 211.983,17.246 212.949,16.695 213.512 C 16.145 214.076,15.776 214.619,15.876 214.719 C 15.977 214.819,15.662 215.373,15.177 215.949 C 14.692 216.525,14.107 217.568,13.876 218.268 C 13.645 218.967,13.085 220.086,12.631 220.755 C 12.177 221.424,11.806 222.161,11.806 222.393 C 11.806 222.624,11.441 223.501,10.995 224.341 C 9.054 227.998,8.193 236.841,9.305 241.699 C 10.160 245.436,14.896 250.981,18.327 252.261 C 19.228 252.598,20.221 253.094,20.534 253.365 C 21.045 253.807,23.650 254.594,29.596 256.103 C 35.585 257.624,59.628 257.053,67.947 255.193 C 68.746 255.014,71.090 254.719,73.155 254.536 C 75.220 254.353,77.925 253.889,79.167 253.505 C 80.408 253.120,83.359 252.554,85.725 252.247 C 88.090 251.940,90.746 251.409,91.627 251.067 C 92.508 250.725,93.875 250.347,94.665 250.225 C 95.454 250.104,97.251 249.614,98.658 249.137 C 100.064 248.660,102.231 248.169,103.472 248.045 C 104.714 247.921,106.309 247.530,107.017 247.174 C 107.725 246.819,109.600 246.226,111.184 245.856 C 112.767 245.487,114.766 244.865,115.625 244.475 C 116.484 244.085,117.578 243.760,118.056 243.754 C 118.533 243.748,119.744 243.361,120.747 242.894 C 121.750 242.427,123.157 241.939,123.872 241.809 C 124.588 241.680,125.620 241.348,126.166 241.071 L 127.159 240.568 126.166 239.518 C 125.161 238.455,122.090 236.284,119.818 235.032 C 119.135 234.655,118.078 234.002,117.470 233.580 C 116.861 233.158,115.260 232.132,113.911 231.299 C 112.562 230.467,111.458 229.664,111.458 229.514 C 111.458 229.365,110.805 228.981,110.006 228.661 C 109.207 228.341,108.123 227.738,107.597 227.321 C 103.904 224.392,101.898 223.863,98.785 224.996 C 97.639 225.413,95.061 226.118,93.056 226.562 C 91.050 227.006,88.988 227.533,88.472 227.732 C 87.957 227.931,86.160 228.267,84.479 228.479 C 82.799 228.690,80.486 229.176,79.340 229.559 C 77.342 230.226,72.446 230.873,63.889 231.600 C 61.693 231.787,59.503 232.023,59.024 232.125 C 58.113 232.319,49.331 231.137,47.222 230.537 C 38.459 228.044,37.716 218.850,45.486 209.052 C 50.427 202.821,55.096 197.998,60.938 193.093 C 61.892 192.291,63.142 191.199,63.715 190.667 C 65.993 188.548,71.361 184.218,74.306 182.124 C 75.356 181.377,76.700 180.367,77.292 179.879 C 77.885 179.392,78.822 178.723,79.376 178.393 C 79.929 178.063,81.085 177.249,81.944 176.584 C 84.736 174.424,87.519 172.545,88.453 172.190 C 88.955 171.999,89.688 171.525,90.082 171.137 C 90.476 170.749,91.892 169.746,93.229 168.909 C 94.566 168.072,95.881 167.186,96.151 166.940 C 96.421 166.694,97.387 166.102,98.297 165.625 C 100.238 164.607,104.911 161.543,106.471 160.266 C 107.070 159.776,107.715 159.375,107.904 159.375 C 110.013 159.375,109.103 157.988,104.901 154.800 C 103.872 154.019,101.919 152.346,100.560 151.082 C 95.617 146.482,94.841 146.045,93.973 147.369 " stroke="none" fill="#0b3f7c" fill-rule="evenodd"></path><path id="path1" d="M307.986 62.500 C 307.986 62.716,306.076 62.847,302.951 62.847 C 299.826 62.847,297.917 62.979,297.917 63.194 C 297.917 63.393,296.867 63.542,295.461 63.542 C 293.062 63.542,292.014 63.956,292.014 64.906 C 292.014 65.157,289.877 65.278,285.417 65.278 C 281.250 65.278,278.819 65.406,278.819 65.625 C 278.819 65.816,278.541 65.972,278.202 65.972 C 277.862 65.972,277.359 66.285,277.083 66.667 C 276.657 67.259,276.184 67.361,273.882 67.361 C 272.312 67.361,271.181 67.507,271.181 67.708 C 271.181 67.899,270.723 68.056,270.164 68.056 C 269.604 68.056,268.912 68.290,268.626 68.576 C 268.334 68.869,267.485 69.097,266.691 69.097 C 265.914 69.097,265.278 69.253,265.278 69.444 C 265.278 69.645,264.175 69.792,262.665 69.792 C 260.060 69.792,260.052 69.795,259.851 70.799 L 259.649 71.806 255.375 71.927 C 251.453 72.039,251.044 72.113,250.422 72.830 C 249.884 73.451,249.379 73.611,247.963 73.611 C 246.983 73.611,246.181 73.767,246.181 73.958 C 246.181 74.149,245.847 74.306,245.440 74.306 C 245.033 74.306,244.402 74.648,244.039 75.067 C 243.471 75.722,242.931 75.850,240.195 75.981 C 236.988 76.134,236.111 76.478,236.111 77.579 C 236.111 78.019,235.674 78.125,233.854 78.125 C 232.581 78.125,231.597 78.276,231.597 78.472 C 231.597 78.663,231.117 78.819,230.531 78.819 C 229.944 78.819,229.230 79.054,228.943 79.340 C 228.657 79.627,228.121 79.861,227.753 79.861 C 227.385 79.861,227.083 80.017,227.083 80.208 C 227.083 80.399,226.224 80.556,225.174 80.556 C 223.669 80.556,223.264 80.671,223.264 81.101 C 223.264 82.181,222.332 82.639,220.139 82.639 C 218.065 82.639,217.014 83.098,217.014 84.003 C 217.014 84.222,216.231 84.375,215.104 84.375 C 214.054 84.375,213.194 84.531,213.194 84.722 C 213.194 84.913,212.783 85.069,212.280 85.069 C 211.435 85.069,210.069 86.175,210.069 86.859 C 210.069 87.020,209.310 87.153,208.382 87.153 C 206.987 87.153,206.581 87.303,206.043 88.021 C 205.492 88.754,205.107 88.889,203.563 88.889 C 202.558 88.889,201.736 89.045,201.736 89.236 C 201.736 89.427,201.267 89.583,200.694 89.583 C 199.897 89.583,199.653 89.740,199.653 90.253 C 199.653 90.808,199.313 90.963,197.656 91.164 C 195.433 91.433,194.792 91.788,194.792 92.751 C 194.792 93.303,194.522 93.403,193.031 93.403 C 191.329 93.403,190.278 93.924,190.278 94.767 C 190.278 94.986,189.495 95.139,188.368 95.139 C 187.318 95.139,186.458 95.295,186.458 95.486 C 186.458 95.711,182.292 95.833,174.653 95.833 C 167.014 95.833,162.847 95.956,162.847 96.181 C 162.847 96.372,162.022 96.528,161.014 96.528 C 159.579 96.528,159.072 96.679,158.681 97.222 C 158.314 97.731,157.782 97.917,156.694 97.917 C 155.877 97.917,155.208 98.052,155.208 98.218 C 155.208 98.384,154.548 98.608,153.740 98.717 C 152.933 98.825,152.216 99.080,152.149 99.283 C 152.081 99.486,151.570 99.653,151.013 99.653 C 150.456 99.653,150.000 99.809,150.000 100.000 C 150.000 100.191,149.672 100.347,149.271 100.347 C 148.870 100.347,148.128 100.790,147.622 101.332 C 146.884 102.121,146.300 102.358,144.678 102.525 C 143.247 102.672,142.473 102.943,142.033 103.450 C 141.691 103.844,141.235 104.167,141.018 104.167 C 140.802 104.167,140.625 104.323,140.625 104.514 C 140.625 104.705,140.384 104.861,140.088 104.861 C 139.793 104.861,139.161 105.252,138.684 105.729 C 138.206 106.207,137.533 106.597,137.188 106.597 C 136.844 106.597,136.071 107.066,135.471 107.639 C 134.872 108.212,134.263 108.682,134.118 108.684 C 133.973 108.686,133.324 109.233,132.677 109.900 C 132.029 110.566,131.222 111.111,130.883 111.111 C 130.532 111.111,130.068 111.560,129.805 112.153 C 129.552 112.726,129.215 113.194,129.057 113.194 C 128.645 113.194,127.778 114.119,127.778 114.559 C 127.778 114.763,127.500 114.931,127.160 114.931 C 126.820 114.931,126.312 115.265,126.032 115.673 C 125.751 116.081,125.169 116.777,124.740 117.220 C 124.310 117.662,123.958 118.114,123.958 118.225 C 123.958 118.335,123.411 118.973,122.743 119.641 C 122.075 120.310,121.528 121.068,121.528 121.327 C 121.528 121.585,121.060 122.166,120.489 122.617 C 119.918 123.068,119.449 123.711,119.448 124.045 C 119.446 124.379,119.288 124.653,119.097 124.653 C 118.906 124.653,118.750 124.868,118.750 125.131 C 118.750 125.394,118.516 125.804,118.229 126.042 C 117.943 126.279,117.708 126.694,117.708 126.964 C 117.708 127.623,115.437 129.861,114.769 129.861 C 114.476 129.861,114.236 129.616,114.236 129.315 C 114.236 128.774,113.449 127.778,113.021 127.778 C 112.677 127.778,111.966 126.978,111.710 126.302 C 111.575 125.944,111.119 125.694,110.601 125.694 C 109.920 125.694,109.722 125.518,109.722 124.909 C 109.722 124.427,109.420 123.990,108.941 123.780 C 108.511 123.592,108.109 123.080,108.047 122.642 C 107.967 122.081,107.636 121.788,106.918 121.644 C 106.360 121.532,105.903 121.328,105.903 121.190 C 105.903 120.678,104.586 119.444,104.039 119.444 C 103.666 119.444,103.472 119.148,103.472 118.576 C 103.472 117.882,103.299 117.708,102.604 117.708 C 101.903 117.708,101.736 117.536,101.736 116.815 C 101.736 115.811,101.018 114.931,100.198 114.931 C 99.898 114.931,99.653 114.767,99.653 114.568 C 99.653 114.096,98.057 112.500,97.585 112.500 C 97.386 112.500,97.222 112.031,97.222 111.458 C 97.222 110.885,97.090 110.417,96.928 110.417 C 96.290 110.417,95.139 109.076,95.139 108.332 C 95.139 107.899,94.748 107.183,94.271 106.740 C 93.783 106.288,93.403 105.549,93.403 105.051 C 93.403 104.565,93.247 104.167,93.056 104.167 C 92.865 104.167,92.708 103.850,92.708 103.464 C 92.708 102.966,92.415 102.702,91.707 102.560 C 90.710 102.361,90.706 102.351,90.560 99.301 C 90.478 97.586,90.224 96.014,89.982 95.722 C 89.699 95.381,89.672 95.125,89.904 94.982 C 90.098 94.862,90.360 93.988,90.486 93.041 C 90.700 91.430,90.778 91.319,91.711 91.319 C 92.260 91.319,92.708 91.163,92.708 90.972 C 92.708 90.781,93.026 90.625,93.414 90.625 C 93.802 90.625,94.209 90.391,94.319 90.104 C 94.468 89.716,95.086 89.583,96.739 89.583 C 97.987 89.583,98.958 89.431,98.958 89.236 C 98.958 88.766,110.994 88.766,111.285 89.236 C 111.403 89.427,112.204 89.583,113.066 89.583 C 113.996 89.583,114.845 89.795,115.154 90.104 C 116.342 91.292,121.181 90.575,121.181 89.211 C 121.181 89.034,121.649 88.889,122.222 88.889 C 122.938 88.889,123.264 88.718,123.264 88.343 C 123.264 87.532,124.141 86.806,125.120 86.806 C 126.439 86.806,127.083 86.452,127.083 85.727 C 127.083 85.257,127.331 85.069,127.951 85.069 C 128.429 85.069,128.819 84.913,128.819 84.722 C 128.819 84.531,129.061 84.375,129.356 84.375 C 129.651 84.375,130.283 83.984,130.761 83.507 C 131.238 83.030,131.945 82.639,132.332 82.639 C 133.171 82.639,134.028 81.862,134.028 81.101 C 134.028 80.726,134.354 80.556,135.069 80.556 C 135.642 80.556,136.111 80.399,136.111 80.208 C 136.111 80.017,136.266 79.861,136.456 79.861 C 136.973 79.861,138.542 78.408,138.542 77.929 C 138.542 77.700,138.854 77.430,139.236 77.330 C 140.486 77.003,140.104 75.503,138.318 73.716 L 136.705 72.104 133.110 71.944 C 130.285 71.818,129.514 71.677,129.514 71.284 C 129.514 70.315,128.548 69.792,126.761 69.792 C 125.792 69.792,125.000 69.635,125.000 69.444 C 125.000 69.253,124.520 69.097,123.934 69.097 C 123.347 69.097,122.633 68.863,122.346 68.576 C 122.060 68.290,121.446 68.056,120.982 68.056 C 120.518 68.056,120.139 67.899,120.139 67.708 C 120.139 67.509,119.086 67.361,117.674 67.361 C 115.383 67.361,115.141 67.288,114.236 66.319 L 113.263 65.278 107.830 65.278 C 102.481 65.278,102.385 65.264,101.593 64.410 C 100.848 63.606,100.554 63.542,97.616 63.542 C 95.733 63.542,94.444 63.401,94.444 63.194 C 94.444 62.972,91.262 62.847,85.590 62.847 C 79.919 62.847,76.736 62.972,76.736 63.194 C 76.736 63.385,75.948 63.542,74.985 63.542 C 73.598 63.542,73.039 63.722,72.297 64.410 C 71.414 65.229,71.141 65.278,67.451 65.278 C 65.076 65.278,63.542 65.414,63.542 65.625 C 63.542 65.816,63.229 65.972,62.847 65.972 C 62.384 65.972,62.153 66.204,62.153 66.667 C 62.153 67.247,61.921 67.361,60.739 67.361 C 59.375 67.361,58.333 67.952,58.333 68.725 C 58.333 68.930,58.078 69.097,57.766 69.097 C 57.040 69.097,55.903 70.401,55.903 71.234 C 55.903 71.715,55.643 71.875,54.861 71.875 C 54.011 71.875,53.819 72.019,53.819 72.661 C 53.819 73.143,53.517 73.579,53.038 73.789 C 52.555 74.001,52.215 74.497,52.147 75.087 C 52.087 75.612,51.891 76.042,51.713 76.042 C 51.535 76.042,51.389 76.632,51.389 77.354 C 51.389 78.268,51.178 78.818,50.694 79.167 C 50.243 79.492,50.000 80.066,50.000 80.806 C 50.000 81.432,49.844 81.944,49.653 81.944 C 49.450 81.944,49.306 83.102,49.306 84.722 C 49.306 86.343,49.450 87.500,49.653 87.500 C 49.844 87.500,50.000 88.114,50.000 88.865 C 50.000 89.926,50.155 90.280,50.694 90.451 C 51.277 90.636,51.389 90.977,51.389 92.558 C 51.389 93.596,51.545 94.444,51.736 94.444 C 51.927 94.444,52.083 95.209,52.083 96.143 C 52.083 97.665,52.173 97.864,52.951 98.059 C 53.733 98.255,53.819 98.451,53.819 100.015 C 53.819 101.669,53.870 101.764,54.861 101.962 C 55.842 102.158,55.903 102.266,55.903 103.809 C 55.903 105.533,56.609 106.597,57.753 106.597 C 58.218 106.597,58.333 106.943,58.333 108.333 L 58.333 110.069 59.896 110.069 L 61.458 110.069 61.458 114.757 L 61.458 119.444 64.583 119.444 C 67.682 119.444,67.708 119.452,67.708 120.310 C 67.708 120.799,68.010 121.363,68.403 121.608 C 68.825 121.872,69.097 122.418,69.097 123.000 C 69.097 123.640,69.279 123.958,69.643 123.958 C 70.265 123.958,71.181 124.769,71.181 125.320 C 71.181 125.523,72.274 126.775,73.611 128.101 C 74.948 129.427,76.043 130.717,76.045 130.968 C 76.047 131.219,76.543 131.814,77.148 132.292 C 77.752 132.769,78.443 133.355,78.682 133.594 C 78.921 133.832,79.246 134.028,79.404 134.028 C 79.562 134.028,79.895 134.487,80.144 135.049 C 80.392 135.611,81.056 136.274,81.617 136.523 C 82.179 136.772,82.639 137.092,82.639 137.235 C 82.639 137.512,83.694 138.818,84.998 140.155 C 85.437 140.605,86.081 140.972,86.431 140.972 C 86.859 140.972,87.134 141.312,87.274 142.014 C 87.400 142.641,87.700 143.056,88.028 143.056 C 88.328 143.056,88.949 143.407,89.409 143.837 C 89.868 144.266,90.497 144.829,90.805 145.088 C 91.114 145.346,91.278 145.788,91.169 146.071 C 91.061 146.353,90.972 146.806,90.972 147.077 C 90.972 147.420,90.551 147.569,89.583 147.569 C 88.819 147.569,88.194 147.726,88.194 147.917 C 88.194 148.108,87.960 148.264,87.674 148.264 C 87.387 148.264,87.153 148.498,87.153 148.785 C 87.153 149.090,86.830 149.310,86.372 149.317 C 85.460 149.329,84.375 150.066,84.375 150.671 C 84.375 151.271,83.482 152.083,82.822 152.083 C 82.514 152.083,81.840 152.474,81.325 152.951 C 80.810 153.429,80.103 153.819,79.753 153.819 C 78.973 153.819,78.125 154.621,78.125 155.357 C 78.125 155.712,77.812 155.903,77.232 155.903 C 76.220 155.903,75.551 156.450,75.196 157.568 C 74.993 158.207,74.696 158.333,73.396 158.333 C 71.992 158.333,71.805 158.432,71.489 159.336 C 71.242 160.044,70.841 160.398,70.119 160.542 C 69.392 160.688,69.097 160.949,69.097 161.450 C 69.097 161.921,68.869 162.153,68.403 162.153 C 67.841 162.153,67.708 162.384,67.708 163.368 C 67.708 164.217,67.551 164.583,67.188 164.583 C 66.901 164.583,66.667 164.740,66.667 164.931 C 66.667 165.122,66.209 165.278,65.649 165.278 C 64.858 165.278,64.607 165.452,64.521 166.059 C 64.460 166.489,64.058 166.995,63.628 167.183 C 63.199 167.372,62.847 167.645,62.847 167.791 C 62.847 167.936,62.222 168.056,61.458 168.056 C 60.455 168.056,60.069 168.200,60.069 168.576 C 60.069 168.863,59.835 169.097,59.549 169.097 C 59.201 169.097,59.028 169.444,59.028 170.139 C 59.028 171.098,58.931 171.181,57.812 171.181 C 56.532 171.181,55.208 172.151,55.208 173.090 C 55.208 173.380,54.900 173.611,54.514 173.611 C 54.132 173.611,53.819 173.767,53.819 173.958 C 53.819 174.149,53.518 174.306,53.149 174.306 C 52.718 174.306,52.439 174.585,52.368 175.087 C 52.276 175.736,52.008 175.886,50.781 175.975 C 49.588 176.061,49.306 176.211,49.306 176.756 C 49.306 177.127,49.071 177.431,48.785 177.431 C 48.498 177.431,48.264 177.686,48.264 177.997 C 48.264 178.663,46.986 179.861,46.276 179.861 C 45.620 179.861,44.792 180.719,44.792 181.399 C 44.792 181.699,44.624 181.944,44.420 181.944 C 43.807 181.944,43.056 182.887,43.056 183.656 C 43.056 184.762,43.392 184.571,46.367 181.778 C 47.888 180.350,49.235 179.178,49.360 179.174 C 49.558 179.168,51.718 177.444,56.250 173.675 C 56.918 173.119,57.973 172.404,58.594 172.087 C 59.214 171.770,59.722 171.393,59.722 171.251 C 59.722 171.108,60.230 170.717,60.851 170.381 C 61.471 170.046,62.839 169.001,63.889 168.058 C 64.939 167.116,66.189 166.144,66.667 165.898 C 67.144 165.652,67.691 165.332,67.882 165.187 C 68.073 165.041,69.323 164.149,70.660 163.205 C 71.997 162.260,73.637 161.083,74.306 160.589 C 76.349 159.077,77.894 158.046,79.167 157.343 C 79.835 156.973,80.680 156.342,81.043 155.940 C 81.407 155.537,81.836 155.208,81.995 155.208 C 82.155 155.208,83.002 154.661,83.878 153.993 C 84.753 153.325,85.673 152.778,85.922 152.778 C 86.170 152.778,86.569 152.542,86.809 152.253 C 87.348 151.603,91.500 148.888,92.800 148.335 C 95.166 147.329,94.888 145.136,92.126 143.015 C 89.958 141.350,77.709 129.175,74.653 125.647 C 73.602 124.435,72.341 123.051,71.850 122.572 C 71.358 122.093,70.659 121.233,70.296 120.660 C 69.932 120.087,68.381 118.133,66.849 116.318 C 65.316 114.503,63.751 112.408,63.371 111.663 C 62.990 110.918,62.404 110.236,62.069 110.148 C 61.733 110.060,61.458 109.715,61.458 109.381 C 61.458 109.047,61.167 108.402,60.811 107.946 C 60.455 107.491,59.764 106.327,59.275 105.360 C 58.787 104.393,58.141 103.398,57.840 103.147 C 57.538 102.897,57.292 102.426,57.292 102.100 C 57.292 101.773,56.891 100.738,56.402 99.798 C 55.490 98.046,54.174 94.568,53.261 91.493 C 52.876 90.196,52.772 88.352,52.849 84.201 L 52.951 78.646 54.130 76.563 C 56.321 72.689,59.852 69.818,63.991 68.546 C 64.985 68.240,66.514 67.699,67.389 67.344 C 72.882 65.113,103.548 65.240,107.942 67.512 C 108.517 67.809,110.129 68.213,111.525 68.409 C 114.137 68.777,118.191 69.804,123.958 71.561 C 125.773 72.113,128.075 72.718,129.074 72.905 C 130.073 73.091,131.479 73.540,132.199 73.901 C 132.918 74.263,134.080 74.744,134.781 74.971 C 137.735 75.926,136.301 77.360,126.762 82.986 C 125.953 83.464,124.874 84.184,124.364 84.587 C 123.855 84.989,122.891 85.597,122.222 85.938 C 121.554 86.278,120.577 86.915,120.051 87.353 C 118.940 88.281,118.434 88.249,112.894 86.899 C 104.708 84.904,92.620 86.624,89.111 90.283 L 87.424 92.042 87.552 95.781 C 87.648 98.588,87.831 99.750,88.285 100.443 C 88.618 100.951,89.222 102.252,89.627 103.335 C 90.424 105.467,91.119 106.628,94.281 111.111 C 94.752 111.780,95.412 112.782,95.746 113.340 C 96.676 114.890,100.375 118.945,105.556 124.094 C 115.225 133.705,116.309 134.468,118.017 132.869 C 118.516 132.403,119.594 131.652,120.414 131.201 C 125.482 128.415,126.809 127.704,128.993 126.607 C 130.330 125.936,132.439 124.774,133.681 124.024 C 134.922 123.275,136.328 122.543,136.806 122.397 C 137.283 122.251,138.096 121.833,138.613 121.470 C 139.130 121.106,140.067 120.636,140.696 120.425 C 141.326 120.215,142.319 119.688,142.904 119.255 C 143.489 118.821,144.525 118.233,145.205 117.949 C 145.886 117.665,146.542 117.272,146.663 117.076 C 146.784 116.880,147.702 116.453,148.702 116.128 C 149.702 115.802,150.755 115.341,151.042 115.102 C 151.328 114.864,152.344 114.288,153.299 113.822 C 154.253 113.356,155.503 112.720,156.076 112.407 C 156.649 112.095,158.368 111.274,159.896 110.583 C 161.424 109.892,163.064 109.109,163.542 108.843 C 165.290 107.868,170.104 105.621,171.264 105.238 C 171.920 105.021,172.982 104.457,173.623 103.985 C 174.263 103.512,175.039 103.125,175.347 103.125 C 175.654 103.125,176.678 102.750,177.623 102.291 C 182.277 100.030,184.657 99.003,185.764 98.779 C 186.432 98.644,187.682 98.169,188.542 97.724 C 189.401 97.279,190.807 96.688,191.667 96.411 C 193.642 95.773,197.579 94.177,198.264 93.736 C 199.154 93.163,200.454 92.647,202.205 92.170 C 203.131 91.918,204.150 91.476,204.468 91.188 C 204.786 90.900,205.813 90.492,206.750 90.282 C 207.688 90.072,209.402 89.438,210.559 88.874 C 211.716 88.309,212.886 87.847,213.159 87.847 C 213.431 87.847,214.298 87.470,215.084 87.009 C 215.871 86.548,217.134 86.062,217.893 85.929 C 218.651 85.796,220.130 85.330,221.181 84.893 C 223.188 84.059,225.872 83.139,230.208 81.797 C 231.641 81.353,233.516 80.673,234.375 80.285 C 235.234 79.897,236.875 79.391,238.021 79.160 C 239.167 78.929,240.528 78.523,241.046 78.257 C 241.563 77.991,243.126 77.534,244.518 77.242 C 245.910 76.949,247.908 76.410,248.958 76.043 C 250.009 75.677,251.806 75.196,252.951 74.975 C 254.097 74.754,255.588 74.291,256.265 73.948 C 256.942 73.604,258.817 73.134,260.432 72.903 C 262.047 72.672,264.540 72.128,265.972 71.693 C 267.405 71.259,269.390 70.805,270.384 70.685 C 271.378 70.565,272.788 70.256,273.517 69.998 C 274.247 69.741,276.558 69.258,278.654 68.924 C 280.750 68.591,283.715 67.957,285.243 67.517 C 287.203 66.951,289.758 66.600,293.924 66.323 C 297.170 66.108,300.686 65.722,301.736 65.467 C 306.848 64.222,324.048 63.856,328.646 64.894 C 329.410 65.066,331.675 65.545,333.681 65.958 C 338.039 66.855,345.211 70.242,347.412 72.443 C 347.863 72.895,348.391 73.264,348.586 73.264 C 349.027 73.264,351.717 77.356,351.895 78.299 C 352.825 83.217,352.879 84.118,352.456 87.588 C 351.808 92.896,351.402 94.779,350.484 96.735 C 350.027 97.708,349.653 98.692,349.653 98.921 C 349.653 99.356,346.747 104.972,346.160 105.673 C 345.783 106.122,344.580 107.824,343.227 109.821 C 342.738 110.543,342.030 111.442,341.655 111.817 C 341.279 112.193,340.972 112.617,340.972 112.760 C 340.972 112.904,340.032 114.036,338.882 115.278 C 337.733 116.519,336.517 117.847,336.179 118.229 C 330.219 124.976,321.390 134.112,319.346 135.649 C 318.536 136.258,310.418 143.694,306.597 147.327 C 306.120 147.781,305.366 148.345,304.922 148.582 C 304.477 148.818,303.836 149.273,303.496 149.592 C 303.155 149.912,302.143 150.720,301.246 151.389 C 300.349 152.057,298.932 153.151,298.097 153.819 C 297.263 154.488,296.015 155.425,295.324 155.903 C 294.634 156.380,293.489 157.216,292.781 157.760 C 292.073 158.304,290.946 159.051,290.278 159.419 C 289.609 159.786,288.203 160.720,287.153 161.493 C 286.102 162.265,284.694 163.256,284.023 163.693 C 283.351 164.131,282.590 164.745,282.331 165.057 C 282.072 165.369,281.593 165.625,281.267 165.625 C 280.586 165.625,278.430 164.308,273.611 160.949 C 272.370 160.084,271.174 159.376,270.953 159.375 C 270.732 159.375,269.920 158.867,269.148 158.247 C 267.562 156.972,264.805 155.208,264.397 155.208 C 264.180 155.208,261.304 153.167,259.954 152.056 C 259.579 151.747,261.166 150.234,263.383 148.784 C 264.346 148.155,265.342 147.390,265.596 147.084 C 265.850 146.778,266.258 146.528,266.503 146.528 C 266.748 146.528,267.584 146.020,268.362 145.399 C 269.139 144.779,270.412 143.802,271.191 143.229 C 271.969 142.656,273.106 141.781,273.716 141.284 C 274.327 140.786,275.196 140.185,275.649 139.947 C 276.727 139.381,280.312 136.649,280.886 135.958 C 281.133 135.660,281.490 135.417,281.679 135.417 C 282.031 135.417,282.436 135.111,286.632 131.674 C 287.969 130.580,289.988 128.981,291.119 128.123 C 292.250 127.265,294.047 125.746,295.112 124.747 C 296.177 123.749,297.160 122.928,297.297 122.924 C 298.231 122.896,306.381 114.960,309.429 111.111 C 316.309 102.425,317.520 99.781,317.309 93.915 L 317.188 90.554 315.026 88.523 C 312.737 86.372,312.463 86.256,307.118 85.179 C 303.443 84.438,294.599 84.330,291.840 84.992 C 290.885 85.221,287.813 85.572,285.013 85.772 C 281.470 86.025,278.724 86.447,275.985 87.159 C 273.820 87.722,271.547 88.185,270.933 88.188 C 270.319 88.192,269.022 88.508,268.049 88.891 C 267.077 89.275,264.766 89.829,262.915 90.124 C 261.063 90.419,258.584 91.043,257.406 91.511 C 256.228 91.978,254.935 92.361,254.533 92.361 C 254.131 92.361,252.908 92.689,251.814 93.091 C 250.721 93.492,248.635 94.111,247.178 94.466 C 245.721 94.822,244.002 95.416,243.358 95.787 C 242.714 96.159,241.328 96.572,240.278 96.705 C 239.227 96.839,237.899 97.233,237.326 97.581 C 236.753 97.929,235.190 98.531,233.854 98.919 C 229.882 100.071,225.426 101.669,224.510 102.269 C 224.039 102.577,222.664 103.037,221.454 103.290 C 220.244 103.543,218.711 104.063,218.047 104.446 C 217.383 104.828,216.298 105.254,215.634 105.393 C 214.466 105.637,211.988 106.745,208.599 108.539 C 207.694 109.018,206.132 109.652,205.126 109.949 C 204.121 110.245,203.140 110.616,202.947 110.773 C 202.754 110.930,201.660 111.404,200.517 111.826 C 199.373 112.247,198.264 112.729,198.052 112.895 C 197.841 113.062,196.825 113.490,195.796 113.848 C 194.766 114.205,193.158 114.907,192.223 115.408 C 191.287 115.910,190.271 116.319,189.966 116.319 C 189.660 116.319,188.472 116.784,187.326 117.353 C 186.181 117.921,184.696 118.621,184.028 118.908 C 183.359 119.195,182.578 119.580,182.292 119.764 C 182.005 119.947,180.286 120.738,178.472 121.522 C 176.658 122.305,174.783 123.172,174.306 123.448 C 173.828 123.723,172.734 124.271,171.875 124.664 C 171.016 125.057,170.078 125.533,169.792 125.722 C 169.505 125.911,168.646 126.329,167.882 126.652 C 167.118 126.975,164.306 128.368,161.632 129.748 C 158.958 131.128,154.896 133.219,152.604 134.395 C 150.313 135.571,148.203 136.725,147.917 136.959 C 147.630 137.194,146.849 137.593,146.181 137.846 C 145.512 138.100,144.653 138.584,144.271 138.922 C 143.889 139.260,142.873 139.871,142.014 140.279 C 141.155 140.688,139.514 141.551,138.368 142.198 C 137.222 142.845,135.497 143.754,134.535 144.220 C 132.388 145.257,131.795 145.922,132.093 146.957 C 132.319 147.740,136.427 151.240,138.779 152.653 C 139.460 153.062,140.114 153.537,140.234 153.708 C 140.628 154.273,145.622 157.906,147.709 159.147 C 148.300 159.498,149.175 160.132,149.653 160.555 C 150.541 161.342,152.668 162.959,154.039 163.889 C 154.462 164.175,157.087 165.972,159.872 167.882 C 162.658 169.792,165.546 171.667,166.288 172.049 C 167.031 172.431,167.928 173.003,168.281 173.320 C 169.233 174.176,172.593 176.389,172.939 176.389 C 173.105 176.389,173.774 176.858,174.426 177.431 C 175.079 178.003,175.765 178.472,175.952 178.472 C 176.139 178.472,176.900 178.886,177.643 179.392 C 178.385 179.897,179.544 180.640,180.217 181.041 C 183.354 182.912,185.408 184.175,187.326 185.413 C 188.472 186.153,190.780 187.570,192.456 188.564 C 194.131 189.557,195.591 190.514,195.700 190.689 C 195.808 190.865,196.722 191.374,197.731 191.820 C 198.739 192.266,199.672 192.806,199.804 193.019 C 199.936 193.233,200.620 193.693,201.324 194.041 C 203.640 195.187,206.761 196.937,207.292 197.387 C 207.578 197.630,208.396 198.016,209.110 198.245 C 209.823 198.474,210.499 198.810,210.611 198.991 C 210.794 199.288,212.765 200.405,216.280 202.205 C 216.970 202.558,217.849 203.137,218.234 203.490 C 218.618 203.844,219.490 204.366,220.171 204.651 C 220.852 204.935,221.625 205.428,221.889 205.746 C 222.152 206.063,223.156 206.694,224.118 207.146 C 225.081 207.599,226.102 208.122,226.389 208.309 C 226.675 208.496,227.613 208.974,228.472 209.371 C 229.332 209.769,231.910 211.100,234.201 212.330 C 236.493 213.561,238.915 214.820,239.583 215.129 C 240.252 215.438,241.345 215.986,242.014 216.348 C 242.682 216.709,245.651 218.187,248.611 219.633 C 251.571 221.078,254.423 222.487,254.948 222.763 C 257.697 224.206,262.316 226.389,262.621 226.389 C 262.744 226.389,263.837 226.858,265.050 227.431 C 266.263 228.003,267.491 228.472,267.780 228.472 C 268.069 228.472,268.896 228.872,269.616 229.362 C 270.925 230.250,276.730 232.986,277.306 232.986 C 277.473 232.986,278.313 233.361,279.173 233.818 C 280.033 234.276,281.438 234.837,282.295 235.065 C 283.153 235.294,284.323 235.767,284.896 236.117 C 285.885 236.722,288.658 237.848,292.574 239.235 C 293.551 239.581,294.801 240.091,295.352 240.370 C 295.903 240.648,297.526 241.153,298.958 241.492 C 300.391 241.831,301.751 242.257,301.981 242.438 C 302.389 242.759,306.606 244.343,309.722 245.346 C 310.582 245.622,312.222 246.179,313.368 246.583 C 314.514 246.988,316.748 247.598,318.333 247.939 C 319.919 248.280,322.028 248.881,323.021 249.275 C 330.625 252.289,351.361 253.973,358.169 252.130 C 362.971 250.829,364.979 241.723,361.452 237.240 C 361.074 236.759,360.764 236.190,360.763 235.977 C 360.762 235.632,359.552 233.686,357.214 230.269 C 356.779 229.634,355.838 228.413,355.122 227.557 C 354.405 226.700,353.819 225.856,353.819 225.681 C 353.819 224.802,334.655 205.780,332.700 204.719 C 332.380 204.545,330.868 203.300,329.340 201.953 C 327.813 200.605,326.281 199.263,325.938 198.970 C 325.595 198.677,324.735 197.916,324.028 197.278 C 322.803 196.173,315.529 190.424,313.749 189.155 C 311.713 187.702,312.071 186.820,316.360 182.728 C 318.513 180.674,320.752 178.491,321.335 177.877 C 323.446 175.656,324.518 176.029,330.022 180.903 C 331.208 181.953,332.923 183.359,333.833 184.028 C 334.743 184.696,336.135 185.823,336.928 186.532 C 337.720 187.241,339.540 188.765,340.972 189.920 C 344.709 192.932,346.052 194.074,347.870 195.787 C 348.755 196.620,350.025 197.714,350.691 198.217 C 353.333 200.211,360.759 207.511,366.265 213.527 C 367.918 215.333,369.661 217.208,370.139 217.694 C 371.471 219.049,375.035 223.218,376.681 225.347 C 377.493 226.398,378.552 227.726,379.035 228.299 C 380.684 230.254,383.709 234.409,384.421 235.695 C 384.812 236.401,385.626 237.772,386.229 238.742 C 386.833 239.712,387.639 241.013,388.021 241.634 C 388.403 242.255,389.223 243.566,389.844 244.547 C 390.464 245.528,390.972 246.570,390.972 246.863 C 390.972 247.156,391.431 248.333,391.993 249.479 C 395.640 256.920,396.498 265.360,394.047 269.674 C 392.690 272.063,387.751 276.389,386.382 276.389 C 386.225 276.389,385.514 276.766,384.802 277.226 C 384.090 277.686,382.804 278.166,381.944 278.293 C 379.715 278.621,379.129 278.825,379.356 279.192 C 379.630 279.636,387.500 279.612,387.500 279.167 C 387.500 278.976,387.813 278.819,388.194 278.819 C 388.657 278.819,388.889 278.588,388.889 278.125 C 388.889 277.657,389.120 277.431,389.599 277.431 C 390.324 277.431,392.014 276.000,392.014 275.386 C 392.014 275.199,392.444 274.997,392.969 274.936 C 393.719 274.850,393.947 274.622,394.033 273.872 C 394.094 273.346,394.288 272.917,394.465 272.917 C 395.456 272.917,396.528 271.350,396.528 269.903 C 396.528 268.817,396.668 268.403,397.036 268.403 C 398.727 268.403,398.855 257.125,397.170 256.684 C 396.636 256.544,396.528 256.167,396.528 254.439 C 396.528 252.582,396.418 252.259,395.494 251.396 C 394.671 250.628,394.413 250.030,394.230 248.469 C 394.045 246.893,393.804 246.342,393.007 245.672 C 392.256 245.041,392.014 244.534,392.014 243.599 C 392.014 242.918,391.858 242.361,391.667 242.361 C 391.476 242.361,391.319 242.194,391.319 241.989 C 391.319 241.784,391.124 241.399,390.885 241.133 C 389.846 239.974,389.583 239.589,389.583 239.226 C 389.583 238.660,388.676 237.847,388.046 237.847 C 387.639 237.847,387.500 237.487,387.500 236.434 C 387.500 235.070,386.909 234.028,386.136 234.028 C 385.931 234.028,385.764 233.637,385.764 233.160 C 385.764 232.682,385.608 232.292,385.417 232.292 C 385.226 232.292,385.069 232.018,385.068 231.684 C 385.068 231.350,384.612 230.772,384.056 230.399 C 383.493 230.022,382.959 229.291,382.851 228.750 C 382.715 228.069,382.445 227.778,381.953 227.778 C 381.481 227.778,381.250 227.549,381.250 227.083 C 381.250 226.701,381.094 226.389,380.903 226.389 C 380.712 226.389,380.556 226.155,380.556 225.868 C 380.556 225.577,380.246 225.347,379.852 225.347 C 379.349 225.347,379.090 225.051,378.941 224.306 C 378.809 223.646,378.519 223.264,378.151 223.264 C 377.336 223.264,376.736 222.573,376.736 221.632 C 376.736 221.012,376.542 220.833,375.868 220.833 C 375.230 220.833,375.000 220.648,375.000 220.134 C 375.000 218.859,373.680 217.014,372.768 217.014 C 372.468 217.014,372.222 216.764,372.222 216.459 C 372.222 216.154,371.207 214.914,369.965 213.703 C 368.724 212.491,367.708 211.335,367.708 211.132 C 367.708 210.930,367.541 210.764,367.336 210.764 C 366.844 210.764,365.972 209.876,365.972 209.375 C 365.972 208.803,365.071 207.986,364.441 207.986 C 364.145 207.986,363.804 207.595,363.684 207.118 C 363.564 206.641,363.238 206.250,362.958 206.250 C 362.354 206.250,361.458 205.421,361.458 204.861 C 361.458 204.360,360.586 203.472,360.094 203.472 C 359.890 203.472,359.722 203.305,359.722 203.100 C 359.722 202.608,358.834 201.736,358.333 201.736 C 357.774 201.736,356.944 200.840,356.944 200.236 C 356.944 199.957,356.554 199.630,356.076 199.510 C 355.599 199.390,355.208 199.050,355.208 198.753 C 355.208 197.947,354.328 197.222,353.348 197.222 C 352.712 197.222,352.449 197.013,352.368 196.444 C 352.302 195.985,351.830 195.463,351.215 195.171 C 350.642 194.899,349.390 193.843,348.432 192.824 C 346.941 191.239,346.506 190.972,345.416 190.972 C 344.241 190.972,344.133 190.887,344.032 189.879 C 343.969 189.238,343.642 188.627,343.244 188.403 C 342.262 187.851,341.667 187.257,341.667 186.830 C 341.667 186.626,341.276 186.458,340.799 186.458 C 340.241 186.458,339.931 186.263,339.931 185.913 C 339.931 185.282,339.117 184.375,338.552 184.375 C 338.114 184.375,337.442 183.866,336.372 182.726 C 335.969 182.296,335.343 181.944,334.982 181.944 C 334.184 181.944,333.333 181.151,333.333 180.407 C 333.333 180.056,333.023 179.861,332.465 179.861 C 331.988 179.861,331.597 179.698,331.597 179.498 C 331.597 178.952,329.966 177.431,329.380 177.431 C 329.098 177.431,328.818 177.081,328.757 176.653 C 328.694 176.215,328.353 175.819,327.976 175.747 C 327.117 175.583,326.389 174.854,326.389 174.157 C 326.389 173.716,325.950 173.611,324.107 173.611 C 321.789 173.611,320.833 174.047,320.833 175.105 C 320.833 175.386,320.373 175.700,319.792 175.816 C 319.156 175.943,318.750 176.240,318.750 176.579 C 318.750 177.352,317.895 178.125,317.039 178.125 C 316.503 178.125,316.319 178.347,316.319 178.993 C 316.319 179.551,316.124 179.861,315.774 179.861 C 315.072 179.861,314.236 180.697,314.236 181.399 C 314.236 181.699,314.073 181.944,313.873 181.944 C 313.402 181.944,311.806 183.541,311.806 184.012 C 311.806 184.212,311.415 184.375,310.938 184.375 C 310.080 184.375,310.069 184.410,310.069 187.326 C 310.069 189.718,310.168 190.278,310.590 190.278 C 310.877 190.278,311.111 190.434,311.111 190.625 C 311.111 190.816,311.417 190.972,311.790 190.972 C 312.163 190.972,312.859 191.363,313.336 191.840 C 313.814 192.318,314.457 192.708,314.766 192.708 C 315.479 192.708,316.319 193.537,316.319 194.239 C 316.319 194.536,316.676 194.868,317.111 194.977 C 317.546 195.086,318.106 195.636,318.355 196.199 C 318.677 196.927,319.052 197.222,319.652 197.222 C 320.229 197.222,321.200 197.934,322.730 199.479 C 323.959 200.720,325.185 201.736,325.455 201.736 C 325.724 201.736,326.238 202.127,326.596 202.604 C 327.016 203.163,327.590 203.472,328.207 203.472 C 329.027 203.472,329.167 203.614,329.167 204.444 C 329.167 205.625,329.731 206.250,330.799 206.250 C 331.238 206.250,331.597 206.417,331.597 206.622 C 331.597 207.103,332.481 207.986,332.961 207.986 C 333.166 207.986,333.333 208.232,333.333 208.532 C 333.333 209.279,334.023 209.906,335.160 210.191 C 335.796 210.351,336.111 210.658,336.111 211.118 C 336.111 211.496,336.273 211.806,336.470 211.806 C 336.667 211.806,337.368 212.313,338.026 212.934 C 340.407 215.177,340.953 215.625,341.307 215.625 C 341.505 215.625,341.667 215.937,341.667 216.319 C 341.667 216.782,341.898 217.014,342.361 217.014 C 342.747 217.014,343.056 217.245,343.056 217.535 C 343.056 217.824,343.364 218.056,343.750 218.056 C 344.209 218.056,344.444 218.287,344.444 218.738 C 344.444 219.114,344.991 219.968,345.660 220.637 C 346.328 221.305,346.875 222.013,346.875 222.211 C 346.875 222.408,347.159 222.569,347.507 222.569 C 347.886 222.569,348.337 223.020,348.635 223.698 C 348.908 224.319,349.484 224.981,349.913 225.169 C 350.343 225.358,350.694 225.642,350.694 225.802 C 350.694 226.216,351.618 227.083,352.059 227.083 C 352.263 227.083,352.431 227.396,352.431 227.778 C 352.431 228.160,352.587 228.472,352.778 228.472 C 352.969 228.472,353.125 228.707,353.125 228.993 C 353.125 229.340,353.472 229.514,354.167 229.514 C 355.185 229.514,355.208 229.553,355.208 231.243 C 355.208 232.799,355.296 232.995,356.076 233.191 C 356.708 233.349,356.944 233.641,356.944 234.264 C 356.944 235.235,357.673 236.111,358.482 236.111 C 358.782 236.111,359.028 236.345,359.028 236.632 C 359.028 236.918,359.184 237.153,359.375 237.153 C 359.566 237.153,359.722 238.005,359.722 239.047 C 359.722 240.604,359.877 241.095,360.590 241.809 C 361.620 242.838,361.864 245.486,360.929 245.486 C 360.344 245.486,359.722 246.820,359.722 248.074 C 359.722 248.726,359.481 248.926,358.468 249.116 C 357.644 249.271,357.155 249.581,357.039 250.023 C 356.909 250.520,356.558 250.694,355.689 250.694 C 355.043 250.694,354.514 250.851,354.514 251.042 C 354.514 251.258,352.546 251.389,349.306 251.389 C 346.065 251.389,344.097 251.258,344.097 251.042 C 344.097 250.846,343.109 250.694,341.826 250.694 C 340.086 250.694,339.391 250.542,338.857 250.045 C 338.047 249.290,336.049 248.958,332.320 248.958 C 330.066 248.958,329.592 248.854,329.167 248.264 C 328.891 247.882,328.310 247.569,327.875 247.569 C 327.439 247.569,327.083 247.413,327.083 247.222 C 327.083 247.014,325.722 246.875,323.693 246.875 C 320.511 246.875,320.283 246.827,319.961 246.094 C 319.672 245.435,319.306 245.296,317.622 245.208 C 316.523 245.151,315.625 244.956,315.625 244.774 C 315.625 244.593,314.956 244.444,314.139 244.444 C 313.052 244.444,312.519 244.258,312.153 243.750 C 311.877 243.368,311.374 243.056,311.034 243.056 C 310.695 243.056,310.417 242.899,310.417 242.708 C 310.417 242.517,309.785 242.361,309.013 242.361 C 307.707 242.361,307.378 242.215,306.089 241.059 C 305.813 240.811,304.687 240.625,303.463 240.625 C 301.530 240.625,301.225 240.523,300.347 239.583 C 299.812 239.010,299.055 238.542,298.666 238.542 C 298.276 238.542,297.861 238.385,297.743 238.194 C 297.625 238.003,296.830 237.847,295.976 237.847 C 294.916 237.847,294.359 237.682,294.223 237.326 C 294.113 237.040,293.727 236.806,293.366 236.806 C 293.004 236.806,292.708 236.649,292.708 236.458 C 292.708 236.267,292.068 236.111,291.285 236.111 C 290.152 236.111,289.664 235.899,288.889 235.069 C 288.318 234.458,287.563 234.028,287.062 234.028 C 284.657 234.028,282.986 233.581,282.986 232.939 C 282.986 232.583,282.752 232.292,282.465 232.292 C 282.179 232.292,281.944 232.135,281.944 231.944 C 281.944 231.753,281.269 231.597,280.442 231.597 C 279.289 231.597,278.751 231.396,278.125 230.729 C 277.583 230.153,276.935 229.861,276.194 229.861 C 275.369 229.861,274.864 229.590,274.258 228.823 C 273.705 228.123,273.126 227.783,272.483 227.781 C 271.957 227.779,271.528 227.622,271.528 227.431 C 271.528 227.240,270.825 227.083,269.965 227.083 C 269.086 227.083,268.403 226.921,268.403 226.711 C 268.403 225.965,267.381 225.347,266.146 225.347 C 264.811 225.347,263.889 224.719,263.889 223.810 C 263.889 223.386,263.498 223.264,262.136 223.264 C 260.713 223.264,260.232 223.101,259.579 222.396 C 259.137 221.918,258.519 221.528,258.207 221.528 C 257.894 221.528,257.639 221.372,257.639 221.181 C 257.639 220.990,257.155 220.833,256.563 220.833 C 255.815 220.833,255.190 220.516,254.514 219.792 C 253.739 218.962,253.251 218.750,252.118 218.750 C 251.335 218.750,250.694 218.583,250.694 218.378 C 250.694 217.715,249.725 217.014,248.810 217.014 C 248.318 217.014,247.917 216.858,247.917 216.667 C 247.917 216.476,247.526 216.319,247.049 216.319 C 246.431 216.319,246.181 216.131,246.181 215.668 C 246.181 215.027,245.012 214.583,243.325 214.583 C 242.948 214.583,242.202 214.115,241.667 213.542 C 241.060 212.892,240.348 212.500,239.775 212.500 C 239.259 212.500,238.477 212.120,237.989 211.632 C 237.512 211.155,236.894 210.764,236.616 210.764 C 236.338 210.764,236.111 210.608,236.111 210.417 C 236.111 210.226,235.486 210.069,234.722 210.069 C 233.691 210.069,233.333 209.929,233.333 209.524 C 233.333 208.614,232.412 207.986,231.076 207.986 C 229.842 207.986,228.819 207.368,228.819 206.622 C 228.819 206.417,228.429 206.250,227.951 206.250 C 227.474 206.250,227.083 206.094,227.083 205.903 C 227.083 205.712,226.633 205.556,226.082 205.556 C 224.523 205.556,224.225 203.071,225.727 202.594 C 226.091 202.478,226.389 202.082,226.389 201.713 C 226.389 201.344,226.545 201.042,226.736 201.042 C 226.927 201.042,227.083 200.766,227.083 200.430 C 227.083 200.093,227.474 199.524,227.951 199.166 C 228.429 198.807,228.819 198.223,228.819 197.868 C 228.819 197.513,228.976 197.222,229.167 197.222 C 229.358 197.222,229.514 196.967,229.514 196.655 C 229.514 196.344,229.788 195.836,230.124 195.527 C 230.459 195.218,230.967 194.497,231.252 193.924 C 231.538 193.351,231.927 192.692,232.118 192.460 C 232.309 192.228,232.661 191.805,232.899 191.520 C 233.138 191.235,233.333 190.682,233.333 190.292 C 233.333 189.902,233.490 189.583,233.681 189.583 C 233.872 189.583,234.028 189.305,234.028 188.966 C 234.028 188.626,234.340 188.123,234.722 187.847 C 235.231 187.481,235.417 186.948,235.417 185.861 C 235.417 185.044,235.556 184.375,235.726 184.375 C 235.897 184.375,236.134 183.984,236.254 183.507 C 236.374 183.030,236.625 182.639,236.812 182.639 C 237.000 182.639,237.153 182.170,237.153 181.597 C 237.153 181.024,237.309 180.556,237.500 180.556 C 237.696 180.556,237.847 179.572,237.847 178.299 C 237.847 177.057,237.964 176.040,238.108 176.039 C 238.460 176.035,239.236 174.318,239.236 173.542 C 239.236 173.198,239.392 172.917,239.583 172.917 C 239.807 172.917,239.931 169.213,239.931 162.500 C 239.931 155.787,239.807 152.083,239.583 152.083 C 239.392 152.083,239.236 151.224,239.236 150.174 C 239.236 149.123,239.080 148.264,238.889 148.264 C 238.698 148.264,238.542 147.951,238.542 147.569 C 238.542 147.188,238.385 146.875,238.194 146.875 C 237.994 146.875,237.847 145.775,237.847 144.271 C 237.847 142.766,237.701 141.667,237.500 141.667 C 237.309 141.667,237.153 141.445,237.153 141.175 C 237.153 140.904,236.994 140.630,236.799 140.565 C 236.605 140.500,236.349 139.628,236.230 138.626 C 236.111 137.625,235.880 136.806,235.716 136.806 C 235.551 136.806,235.417 136.528,235.417 136.188 C 235.417 135.848,235.104 135.345,234.722 135.069 C 234.340 134.794,234.028 134.369,234.028 134.125 C 234.028 133.880,233.872 133.681,233.681 133.681 C 233.490 133.681,233.333 133.212,233.333 132.639 C 233.333 132.066,233.177 131.597,232.986 131.597 C 232.795 131.597,232.639 131.285,232.639 130.903 C 232.639 130.517,232.407 130.208,232.118 130.208 C 231.754 130.208,231.597 129.842,231.597 128.993 C 231.597 128.325,231.441 127.778,231.250 127.778 C 231.059 127.778,230.903 127.500,230.903 127.160 C 230.903 126.820,230.590 126.317,230.208 126.042 C 229.826 125.766,229.514 125.341,229.514 125.097 C 229.514 124.853,229.358 124.653,229.167 124.653 C 228.976 124.653,228.819 124.395,228.819 124.080 C 228.819 123.765,228.273 122.977,227.604 122.327 C 226.936 121.678,226.389 120.920,226.389 120.643 C 226.389 120.366,226.105 120.139,225.757 120.139 C 225.378 120.139,224.927 119.688,224.629 119.010 C 224.317 118.301,223.842 117.841,223.351 117.771 C 222.921 117.710,222.569 117.425,222.569 117.139 C 222.569 116.616,221.774 115.625,221.354 115.625 C 221.064 115.625,220.139 114.699,220.139 114.410 C 220.139 113.982,219.143 113.194,218.601 113.194 C 218.301 113.194,218.056 112.949,218.056 112.649 C 218.056 112.107,217.268 111.111,216.840 111.111 C 216.480 111.111,215.625 110.152,215.625 109.747 C 215.625 109.542,215.313 109.375,214.931 109.375 C 214.549 109.375,214.236 109.219,214.236 109.028 C 214.236 108.837,214.647 108.681,215.150 108.681 C 215.995 108.681,217.361 107.575,217.361 106.891 C 217.361 106.730,218.045 106.597,218.880 106.597 C 221.131 106.597,222.569 106.232,222.569 105.661 C 222.569 104.579,223.521 104.167,226.017 104.167 C 227.422 104.167,228.472 104.018,228.472 103.819 C 228.472 103.628,228.707 103.472,228.993 103.472 C 229.280 103.472,229.514 103.180,229.514 102.822 C 229.514 102.255,229.866 102.152,232.288 102.012 C 234.580 101.879,235.175 101.721,235.714 101.099 C 236.124 100.627,236.771 100.347,237.454 100.347 C 238.052 100.347,238.542 100.191,238.542 100.000 C 238.542 99.809,239.018 99.653,239.599 99.653 C 240.264 99.653,240.979 99.331,241.525 98.785 C 242.305 98.004,242.672 97.917,245.155 97.917 C 246.765 97.917,247.917 97.772,247.917 97.569 C 247.917 97.378,248.195 97.222,248.534 97.222 C 248.874 97.222,249.377 96.910,249.653 96.528 C 250.045 95.984,250.552 95.833,251.986 95.833 C 252.995 95.833,253.819 95.677,253.819 95.486 C 253.819 95.295,254.132 95.139,254.514 95.139 C 254.896 95.139,255.208 94.986,255.208 94.798 C 255.208 94.611,255.599 94.360,256.076 94.240 C 256.554 94.120,256.944 93.883,256.944 93.712 C 256.944 93.542,258.319 93.403,260.000 93.403 C 263.152 93.403,263.889 93.127,263.889 91.944 C 263.889 91.380,264.262 91.319,267.708 91.319 C 270.023 91.319,271.528 91.183,271.528 90.972 C 271.528 90.781,272.134 90.625,272.874 90.625 C 273.647 90.625,274.405 90.403,274.653 90.104 C 274.947 89.749,275.735 89.583,277.126 89.583 C 278.255 89.583,279.167 89.428,279.167 89.236 C 279.167 89.045,280.026 88.889,281.076 88.889 C 282.127 88.889,282.986 88.733,282.986 88.542 C 282.986 88.351,283.299 88.194,283.681 88.194 C 284.063 88.194,284.375 88.038,284.375 87.847 C 284.375 87.656,284.688 87.500,285.069 87.500 C 285.451 87.500,285.764 87.344,285.764 87.153 C 285.764 86.928,290.046 86.806,297.917 86.806 L 310.069 86.806 310.069 87.847 C 310.069 88.727,310.204 88.889,310.938 88.889 C 311.415 88.889,311.806 89.045,311.806 89.236 C 311.806 89.427,312.051 89.583,312.351 89.583 C 312.975 89.583,313.889 90.394,313.889 90.947 C 313.889 91.152,314.056 91.319,314.261 91.319 C 315.250 91.319,315.625 92.363,315.625 95.114 C 315.625 97.344,315.521 97.917,315.116 97.917 C 314.439 97.917,313.889 99.007,313.889 100.349 C 313.889 101.528,313.222 102.431,312.351 102.431 C 312.033 102.431,311.806 102.727,311.806 103.141 C 311.806 103.531,311.415 104.242,310.938 104.719 C 310.460 105.196,310.069 105.814,310.069 106.092 C 310.069 106.370,309.913 106.597,309.722 106.597 C 309.531 106.597,309.375 107.066,309.375 107.639 C 309.375 108.565,309.259 108.681,308.333 108.681 C 307.454 108.681,307.292 108.816,307.292 109.549 C 307.292 110.026,307.124 110.417,306.920 110.417 C 306.428 110.417,305.556 111.305,305.556 111.806 C 305.556 112.364,304.660 113.194,304.058 113.194 C 303.781 113.194,303.472 113.506,303.372 113.887 C 303.272 114.268,302.903 114.689,302.550 114.823 C 301.726 115.135,301.042 115.814,301.042 116.319 C 301.042 116.879,300.146 117.708,299.542 117.708 C 299.262 117.708,298.936 118.099,298.816 118.576 C 298.644 119.259,298.377 119.444,297.563 119.444 C 296.649 119.444,296.528 119.564,296.528 120.463 C 296.528 121.316,296.373 121.500,295.573 121.592 C 294.983 121.659,294.487 122.000,294.275 122.483 C 294.087 122.912,293.696 123.267,293.407 123.271 C 293.118 123.276,292.415 123.822,291.844 124.487 C 291.272 125.151,290.491 125.699,290.107 125.705 C 289.184 125.720,288.194 126.498,288.194 127.208 C 288.194 127.522,287.960 127.778,287.674 127.778 C 287.387 127.778,287.153 127.934,287.153 128.125 C 287.153 128.316,286.840 128.472,286.458 128.472 C 285.949 128.472,285.764 128.704,285.764 129.340 C 285.764 130.075,285.602 130.208,284.714 130.208 C 283.824 130.208,283.631 130.368,283.455 131.250 C 283.281 132.118,283.080 132.292,282.248 132.292 C 281.699 132.292,281.250 132.448,281.250 132.639 C 281.250 132.830,280.938 132.986,280.556 132.986 C 280.174 132.986,279.861 133.154,279.861 133.358 C 279.861 133.971,278.919 134.722,278.150 134.722 C 277.727 134.722,277.431 134.947,277.431 135.268 C 277.431 136.034,276.572 136.806,275.719 136.806 C 275.184 136.806,275.000 137.027,275.000 137.674 C 275.000 138.425,274.845 138.542,273.850 138.542 C 272.708 138.542,271.844 139.127,270.843 140.578 C 270.529 141.035,269.962 141.319,269.368 141.319 C 268.570 141.319,268.403 141.470,268.403 142.188 C 268.403 142.834,268.219 143.056,267.684 143.056 C 266.849 143.056,265.972 143.823,265.972 144.553 C 265.972 144.906,265.394 145.131,264.063 145.297 C 262.237 145.526,262.153 145.581,262.153 146.553 C 262.153 147.456,262.034 147.569,261.086 147.569 C 260.022 147.569,259.028 148.229,259.028 148.934 C 259.028 149.138,258.715 149.306,258.333 149.306 C 257.877 149.306,257.639 149.537,257.639 149.980 C 257.639 150.350,257.483 150.750,257.292 150.868 C 257.101 150.986,256.944 151.386,256.944 151.757 C 256.944 152.127,257.101 152.431,257.292 152.431 C 257.483 152.431,257.639 152.743,257.639 153.125 C 257.639 153.658,257.870 153.819,258.637 153.819 C 259.467 153.819,259.670 153.994,259.842 154.852 C 259.994 155.612,260.303 155.947,261.014 156.123 C 261.545 156.254,262.232 156.649,262.541 157.000 C 262.850 157.351,263.279 157.639,263.496 157.639 C 263.712 157.639,263.889 157.795,263.889 157.986 C 263.889 158.177,264.291 158.333,264.782 158.333 C 265.697 158.333,266.667 159.035,266.667 159.697 C 266.667 159.902,267.057 160.069,267.535 160.069 C 268.012 160.069,268.403 160.226,268.403 160.417 C 268.403 160.608,268.872 160.764,269.444 160.764 C 270.160 160.764,270.486 160.935,270.486 161.310 C 270.486 162.075,271.345 162.847,272.197 162.847 C 272.593 162.847,272.917 163.015,272.917 163.219 C 272.917 163.772,273.831 164.583,274.454 164.583 C 274.754 164.583,275.643 165.208,276.430 165.972 L 277.862 167.361 280.718 167.361 C 284.124 167.361,285.764 166.732,285.764 165.426 C 285.764 164.805,285.953 164.583,286.483 164.583 C 287.252 164.583,288.194 163.832,288.194 163.219 C 288.194 163.015,288.741 162.847,289.410 162.847 C 290.078 162.847,290.625 162.691,290.625 162.500 C 290.625 162.309,290.938 162.153,291.319 162.153 C 291.782 162.153,292.014 161.921,292.014 161.458 C 292.014 160.995,292.245 160.764,292.708 160.764 C 293.090 160.764,293.403 160.608,293.403 160.417 C 293.403 160.226,293.637 160.069,293.924 160.069 C 294.248 160.069,294.444 159.742,294.444 159.201 C 294.444 158.435,294.592 158.333,295.706 158.333 C 296.893 158.333,298.264 157.374,298.264 156.544 C 298.264 156.382,298.552 156.250,298.905 156.250 C 299.738 156.250,301.042 155.113,301.042 154.386 C 301.042 154.044,301.327 153.819,301.761 153.819 C 302.530 153.819,303.472 153.068,303.472 152.455 C 303.472 152.251,303.871 152.083,304.358 152.083 C 305.031 152.083,305.332 151.832,305.608 151.042 C 305.839 150.377,306.210 150.000,306.631 150.000 C 306.994 150.000,307.292 149.844,307.292 149.653 C 307.292 149.462,307.537 149.306,307.837 149.306 C 308.461 149.306,309.375 148.495,309.375 147.941 C 309.375 147.737,309.699 147.569,310.094 147.569 C 310.929 147.569,311.806 146.802,311.806 146.072 C 311.806 145.794,312.117 145.486,312.498 145.386 C 312.879 145.286,313.300 144.917,313.434 144.564 C 313.746 143.740,314.425 143.056,314.931 143.056 C 315.505 143.056,316.319 142.154,316.319 141.518 C 316.319 141.167,316.630 140.972,317.188 140.972 C 317.882 140.972,318.056 140.799,318.056 140.104 C 318.056 139.468,318.241 139.236,318.750 139.236 C 319.132 139.236,319.444 139.080,319.444 138.889 C 319.444 138.698,319.757 138.542,320.139 138.542 C 320.648 138.542,320.833 138.310,320.833 137.674 C 320.833 136.979,321.007 136.806,321.701 136.806 C 322.434 136.806,322.569 136.644,322.569 135.764 C 322.569 134.843,322.688 134.722,323.588 134.722 C 324.332 134.722,324.671 134.517,324.849 133.957 C 325.162 132.969,325.849 132.292,326.538 132.292 C 326.912 132.292,327.083 131.965,327.083 131.250 C 327.083 130.370,327.218 130.208,327.951 130.208 C 328.429 130.208,328.819 130.041,328.819 129.836 C 328.819 129.344,329.707 128.472,330.208 128.472 C 330.893 128.472,331.597 127.517,331.597 126.587 C 331.597 125.866,331.764 125.694,332.465 125.694 C 333.160 125.694,333.333 125.521,333.333 124.826 C 333.333 124.093,333.495 123.958,334.375 123.958 C 335.185 123.958,335.417 123.804,335.417 123.264 C 335.417 122.882,335.573 122.569,335.764 122.569 C 335.955 122.569,336.111 122.335,336.111 122.049 C 336.111 121.762,336.279 121.528,336.483 121.528 C 337.036 121.528,337.847 120.614,337.847 119.990 C 337.847 119.690,338.093 119.444,338.393 119.444 C 339.081 119.444,339.768 118.767,340.082 117.779 C 340.222 117.338,340.609 117.014,340.996 117.014 C 341.435 117.014,341.667 116.774,341.667 116.319 C 341.667 115.937,341.823 115.625,342.014 115.625 C 342.205 115.625,342.361 115.313,342.361 114.931 C 342.361 114.482,342.593 114.236,343.015 114.236 C 343.656 114.236,344.083 113.368,344.092 112.041 C 344.098 111.263,344.902 110.417,345.635 110.417 C 345.935 110.417,346.181 110.253,346.181 110.054 C 346.181 109.854,346.532 109.315,346.962 108.855 C 348.471 107.241,348.611 106.962,348.611 105.570 C 348.611 104.242,348.667 104.167,349.653 104.167 C 350.566 104.167,350.694 104.045,350.694 103.178 C 350.694 102.160,351.529 100.169,352.105 99.813 C 352.284 99.702,352.431 99.309,352.431 98.938 C 352.431 98.567,352.587 98.264,352.778 98.264 C 352.969 98.264,353.125 97.623,353.125 96.841 C 353.125 95.707,353.337 95.220,354.167 94.444 L 355.208 93.471 355.208 85.590 L 355.208 77.709 354.167 76.736 C 353.594 76.201,353.125 75.435,353.125 75.034 C 353.125 74.633,352.969 74.306,352.778 74.306 C 352.587 74.306,352.431 74.017,352.431 73.665 C 352.431 72.952,351.401 71.875,350.720 71.875 C 350.477 71.875,349.864 71.435,349.358 70.897 C 348.852 70.359,347.930 69.696,347.309 69.423 C 346.688 69.151,346.181 68.798,346.181 68.640 C 346.181 67.947,345.078 67.361,343.775 67.361 C 342.721 67.361,342.361 67.222,342.361 66.815 C 342.361 65.740,341.429 65.278,339.261 65.278 C 337.993 65.278,337.153 65.129,337.153 64.906 C 337.153 64.201,336.158 63.542,335.094 63.542 C 334.508 63.542,334.028 63.385,334.028 63.194 C 334.028 62.984,332.523 62.847,330.208 62.847 C 327.894 62.847,326.389 62.710,326.389 62.500 C 326.389 62.277,323.090 62.153,317.188 62.153 C 311.285 62.153,307.986 62.277,307.986 62.500 M107.960 159.313 C 107.658 159.442,106.955 159.908,106.397 160.348 C 104.741 161.653,100.077 164.691,98.297 165.625 C 97.387 166.102,96.421 166.694,96.151 166.940 C 95.881 167.186,94.566 168.072,93.229 168.909 C 91.892 169.746,90.476 170.749,90.082 171.137 C 89.688 171.525,88.955 171.999,88.453 172.190 C 87.519 172.545,84.736 174.424,81.944 176.584 C 81.085 177.249,79.929 178.063,79.376 178.393 C 78.822 178.723,77.885 179.392,77.292 179.879 C 76.700 180.367,75.356 181.377,74.306 182.124 C 71.361 184.218,65.993 188.548,63.715 190.667 C 63.142 191.199,61.892 192.291,60.938 193.093 C 55.096 197.998,50.427 202.821,45.486 209.052 C 37.716 218.850,38.459 228.044,47.222 230.537 C 49.331 231.137,58.113 232.319,59.024 232.125 C 59.503 232.023,61.693 231.787,63.889 231.600 C 72.446 230.873,77.342 230.226,79.340 229.559 C 80.486 229.176,82.799 228.690,84.479 228.479 C 86.160 228.267,87.957 227.931,88.472 227.732 C 88.988 227.533,91.050 227.006,93.056 226.562 C 95.061 226.118,97.639 225.413,98.785 224.996 C 101.898 223.863,103.904 224.392,107.597 227.321 C 108.123 227.738,109.207 228.341,110.006 228.661 C 110.805 228.981,111.458 229.365,111.458 229.514 C 111.458 229.664,112.562 230.467,113.911 231.299 C 115.260 232.132,116.861 233.158,117.470 233.580 C 118.078 234.002,119.135 234.655,119.818 235.032 C 122.090 236.284,125.161 238.455,126.166 239.518 L 127.159 240.568 126.166 241.071 C 125.620 241.348,124.588 241.680,123.872 241.809 C 123.157 241.939,121.750 242.427,120.747 242.894 C 119.744 243.361,118.533 243.748,118.056 243.754 C 117.578 243.760,116.484 244.085,115.625 244.475 C 114.766 244.865,112.767 245.487,111.184 245.856 C 109.600 246.226,107.725 246.819,107.017 247.174 C 106.309 247.530,104.714 247.921,103.472 248.045 C 102.231 248.169,100.064 248.660,98.658 249.137 C 97.251 249.614,95.454 250.104,94.665 250.225 C 93.875 250.347,92.508 250.725,91.627 251.067 C 90.746 251.409,88.090 251.940,85.725 252.247 C 83.359 252.554,80.408 253.120,79.167 253.505 C 77.925 253.889,75.220 254.353,73.155 254.536 C 71.090 254.719,68.746 255.014,67.947 255.193 C 59.628 257.053,35.585 257.624,29.596 256.103 C 23.650 254.594,21.045 253.807,20.534 253.365 C 20.221 253.094,19.228 252.598,18.327 252.261 C 14.896 250.981,10.160 245.436,9.305 241.699 C 8.193 236.841,9.054 227.998,10.995 224.341 C 11.441 223.501,11.806 222.624,11.806 222.393 C 11.806 222.161,12.177 221.424,12.631 220.755 C 13.085 220.086,13.645 218.967,13.876 218.268 C 14.107 217.568,14.692 216.525,15.177 215.949 C 15.662 215.373,15.973 214.815,15.868 214.711 C 15.499 214.341,14.269 214.974,14.057 215.643 C 13.939 216.015,13.696 216.319,13.518 216.319 C 13.340 216.319,13.194 216.632,13.194 217.014 C 13.194 217.477,12.963 217.708,12.500 217.708 C 12.114 217.708,11.806 217.940,11.806 218.229 C 11.806 218.516,11.649 218.750,11.458 218.750 C 11.267 218.750,11.111 219.375,11.111 220.139 C 11.111 220.903,10.955 221.528,10.764 221.528 C 10.573 221.528,10.417 221.918,10.417 222.396 C 10.417 222.936,10.220 223.264,9.896 223.264 C 9.496 223.264,9.375 223.708,9.375 225.174 C 9.375 227.005,9.337 227.083,8.461 227.083 C 6.376 227.083,6.191 227.851,6.313 235.990 C 6.420 243.118,6.448 243.367,7.205 244.023 C 7.635 244.395,7.986 244.960,7.986 245.278 C 7.986 245.596,8.533 246.403,9.201 247.072 C 9.870 247.740,10.417 248.516,10.417 248.796 C 10.417 249.076,10.573 249.306,10.764 249.306 C 10.955 249.306,11.111 249.618,11.111 250.000 C 11.111 250.400,11.343 250.694,11.657 250.694 C 12.343 250.694,13.194 251.525,13.194 252.195 C 13.194 252.748,13.909 253.125,14.959 253.125 C 15.325 253.125,15.625 253.281,15.625 253.472 C 15.625 253.663,15.898 253.821,16.233 253.823 C 16.567 253.824,17.209 254.293,17.661 254.864 C 18.392 255.790,18.686 255.903,20.376 255.903 C 21.419 255.903,22.490 256.098,22.756 256.337 C 23.022 256.576,23.473 256.966,23.758 257.205 C 24.043 257.444,25.186 257.639,26.298 257.639 C 27.921 257.639,28.418 257.776,28.819 258.333 C 29.095 258.715,29.520 259.028,29.764 259.028 C 30.008 259.028,30.208 259.184,30.208 259.375 C 30.208 259.591,32.153 259.722,35.347 259.722 C 38.555 259.722,40.627 259.863,40.860 260.096 C 41.105 260.341,42.298 260.396,44.315 260.255 C 46.009 260.136,50.247 259.962,53.733 259.866 C 57.416 259.765,60.069 259.553,60.069 259.360 C 60.069 259.177,60.382 259.028,60.764 259.028 C 61.146 259.028,61.458 258.872,61.458 258.681 C 61.458 258.490,61.840 258.333,62.306 258.333 C 62.772 258.333,63.250 258.177,63.368 257.986 C 63.493 257.785,65.397 257.639,67.902 257.639 C 70.551 257.639,72.222 257.505,72.222 257.292 C 72.222 257.101,72.535 256.944,72.917 256.944 C 73.302 256.944,73.611 256.713,73.611 256.424 C 73.611 255.983,74.435 255.903,78.940 255.903 C 84.464 255.903,86.458 255.482,86.458 254.315 C 86.458 253.927,87.062 253.819,89.236 253.819 C 90.856 253.819,92.014 253.675,92.014 253.472 C 92.014 253.281,92.785 253.125,93.727 253.125 C 95.801 253.125,97.222 252.634,97.222 251.918 C 97.222 251.490,97.728 251.389,99.861 251.389 C 102.345 251.389,102.556 251.328,103.472 250.347 C 104.382 249.374,104.612 249.305,106.997 249.302 C 110.648 249.296,112.212 248.981,112.413 248.211 C 112.506 247.858,112.797 247.569,113.061 247.569 C 113.326 247.569,113.542 247.413,113.542 247.222 C 113.542 247.020,114.704 246.875,116.335 246.875 C 118.852 246.875,119.215 246.789,119.997 246.007 C 120.684 245.320,121.216 245.139,122.546 245.139 C 123.999 245.139,124.339 244.998,125.048 244.100 C 125.601 243.400,126.179 243.061,126.823 243.059 C 127.348 243.057,127.778 242.899,127.778 242.708 C 127.778 242.517,128.168 242.361,128.646 242.361 C 129.458 242.361,129.514 242.247,129.514 240.600 C 129.514 238.898,128.993 237.847,128.150 237.847 C 127.945 237.847,127.778 237.680,127.778 237.475 C 127.778 236.813,126.808 236.111,125.893 236.111 C 125.265 236.111,125.000 235.926,125.000 235.486 C 125.000 234.551,124.299 234.028,123.046 234.028 C 121.924 234.028,121.453 233.715,120.496 232.334 C 120.215 231.929,119.779 231.597,119.526 231.597 C 119.273 231.597,118.675 231.207,118.198 230.729 C 117.532 230.063,116.970 229.861,115.783 229.861 C 114.296 229.861,114.236 229.821,114.236 228.819 C 114.236 228.009,114.082 227.778,113.542 227.778 C 113.160 227.778,112.847 227.622,112.847 227.431 C 112.847 227.240,112.300 227.083,111.632 227.083 C 110.964 227.083,110.417 226.916,110.417 226.711 C 110.417 226.099,109.474 225.347,108.705 225.347 C 108.283 225.347,107.986 225.122,107.986 224.802 C 107.986 224.043,107.130 223.264,106.295 223.264 C 105.911 223.264,105.500 223.108,105.382 222.917 C 105.264 222.726,104.786 222.569,104.320 222.569 C 103.798 222.569,103.472 222.369,103.472 222.049 C 103.472 221.654,103.045 221.528,101.711 221.528 C 100.609 221.528,99.756 221.723,99.430 222.049 C 99.143 222.335,98.529 222.569,98.065 222.569 C 97.602 222.569,97.222 222.726,97.222 222.917 C 97.222 223.108,96.363 223.264,95.313 223.264 C 94.262 223.264,93.403 223.420,93.403 223.611 C 93.403 223.802,93.090 223.958,92.708 223.958 C 92.326 223.958,92.014 224.115,92.014 224.306 C 92.014 224.497,91.780 224.653,91.493 224.653 C 91.207 224.653,90.972 224.809,90.972 225.000 C 90.972 225.206,89.683 225.347,87.800 225.347 C 84.863 225.347,84.569 225.411,83.824 226.215 C 83.064 227.035,82.817 227.083,79.357 227.083 C 77.147 227.083,75.694 227.221,75.694 227.431 C 75.694 227.637,74.389 227.778,72.472 227.778 C 69.649 227.778,69.189 227.864,68.750 228.472 C 68.475 228.854,68.050 229.167,67.805 229.167 C 67.561 229.167,67.361 229.323,67.361 229.514 C 67.361 230.284,51.605 229.949,51.042 229.167 C 50.766 228.785,50.263 228.472,49.923 228.472 C 49.584 228.472,49.306 228.316,49.306 228.125 C 49.306 227.934,48.759 227.778,48.090 227.778 C 47.422 227.778,46.875 227.622,46.875 227.431 C 46.875 227.240,46.406 227.083,45.833 227.083 C 45.139 227.083,44.792 226.910,44.792 226.563 C 44.792 226.276,44.624 226.042,44.420 226.042 C 43.341 226.042,43.056 225.023,43.056 221.181 C 43.056 217.338,43.341 216.319,44.420 216.319 C 44.624 216.319,44.792 215.851,44.792 215.278 C 44.792 214.705,44.948 214.236,45.139 214.236 C 45.330 214.236,45.486 213.845,45.486 213.368 C 45.486 212.810,45.681 212.500,46.032 212.500 C 46.798 212.500,47.569 211.641,47.569 210.789 C 47.569 210.393,47.737 210.069,47.941 210.069 C 48.495 210.069,49.306 209.155,49.306 208.532 C 49.306 208.232,49.462 207.986,49.653 207.986 C 49.844 207.986,50.000 207.674,50.000 207.292 C 50.000 206.910,50.132 206.597,50.294 206.597 C 50.885 206.597,51.978 205.357,52.208 204.427 C 52.353 203.841,52.677 203.472,53.049 203.472 C 53.382 203.472,53.809 203.121,53.998 202.691 C 54.186 202.261,54.698 201.859,55.135 201.797 C 55.697 201.717,55.990 201.386,56.134 200.668 C 56.246 200.107,56.562 199.653,56.839 199.653 C 57.566 199.653,58.333 198.775,58.333 197.941 C 58.333 197.351,58.551 197.222,59.549 197.222 C 60.217 197.222,60.764 197.066,60.764 196.875 C 60.764 196.684,61.076 196.528,61.458 196.528 C 61.900 196.528,62.153 196.296,62.153 195.892 C 62.153 195.542,62.543 195.047,63.021 194.792 C 63.498 194.536,63.889 194.186,63.889 194.014 C 63.889 193.570,64.805 192.708,65.278 192.708 C 65.779 192.708,66.667 191.836,66.667 191.344 C 66.667 191.140,66.990 190.972,67.386 190.972 C 68.200 190.972,69.097 190.210,69.097 189.519 C 69.097 189.266,69.551 188.858,70.105 188.612 C 70.679 188.358,71.204 187.799,71.327 187.312 C 71.493 186.651,71.768 186.458,72.547 186.458 C 73.331 186.458,73.655 186.228,74.014 185.417 C 74.369 184.614,74.700 184.375,75.457 184.375 C 76.352 184.375,77.431 183.711,77.431 183.160 C 77.431 182.870,78.356 181.944,78.646 181.944 C 79.074 181.944,79.861 180.948,79.861 180.407 C 79.861 180.010,80.209 179.861,81.139 179.861 C 82.148 179.861,82.643 179.613,83.499 178.679 C 84.094 178.029,84.964 177.443,85.433 177.377 C 86.005 177.296,86.321 177.000,86.396 176.476 C 86.469 175.963,86.745 175.694,87.202 175.694 C 88.033 175.694,88.889 174.914,88.889 174.157 C 88.889 173.750,89.249 173.611,90.303 173.611 C 91.747 173.611,92.708 173.014,92.708 172.117 C 92.708 171.833,93.176 171.521,93.782 171.400 C 94.373 171.282,95.295 170.715,95.831 170.141 C 96.368 169.567,97.067 169.097,97.386 169.097 C 98.038 169.097,98.958 168.299,98.958 167.733 C 98.958 167.529,99.429 167.361,100.005 167.361 C 101.598 167.361,103.472 166.155,103.472 165.129 C 103.472 164.755,103.798 164.583,104.507 164.583 C 105.322 164.583,105.589 164.398,105.760 163.715 C 105.946 162.975,106.178 162.847,107.329 162.847 L 108.681 162.847 108.681 168.229 C 108.681 171.586,108.811 173.611,109.028 173.611 C 109.219 173.611,109.375 173.911,109.375 174.277 C 109.375 174.643,109.544 174.998,109.750 175.067 C 109.956 175.136,110.213 176.482,110.321 178.058 C 110.429 179.634,110.651 181.007,110.814 181.108 C 110.978 181.208,111.111 181.687,111.111 182.171 C 111.111 182.759,111.342 183.111,111.806 183.233 C 112.327 183.369,112.500 183.706,112.500 184.589 C 112.500 185.235,112.656 185.764,112.847 185.764 C 113.038 185.764,113.194 186.311,113.194 186.979 C 113.194 187.723,113.364 188.194,113.631 188.194 C 114.025 188.194,114.931 190.392,114.931 191.348 C 114.931 191.561,115.399 192.173,115.972 192.708 C 116.545 193.244,117.014 194.009,117.014 194.410 C 117.014 194.811,117.170 195.139,117.361 195.139 C 117.552 195.139,117.708 195.451,117.708 195.833 C 117.708 196.215,117.904 196.529,118.142 196.530 C 118.595 196.533,119.444 198.059,119.444 198.869 C 119.444 199.126,120.304 200.202,121.354 201.261 C 122.405 202.320,123.264 203.328,123.264 203.501 C 123.264 203.980,131.200 211.805,131.690 211.809 C 131.925 211.810,132.484 212.275,132.931 212.840 C 133.425 213.467,134.206 213.956,134.927 214.091 C 135.632 214.224,136.111 214.518,136.111 214.820 C 136.111 215.552,136.987 216.319,137.822 216.319 C 138.218 216.319,138.542 216.476,138.542 216.667 C 138.542 216.858,138.854 217.014,139.236 217.014 C 139.618 217.014,139.931 217.167,139.931 217.354 C 139.931 217.542,140.321 217.793,140.799 217.913 C 141.276 218.033,141.667 218.270,141.667 218.440 C 141.667 218.611,141.916 218.750,142.222 218.750 C 142.527 218.750,143.215 219.219,143.750 219.792 C 144.285 220.365,145.042 220.833,145.431 220.833 C 145.821 220.833,146.223 220.969,146.326 221.135 C 146.429 221.301,147.141 221.537,147.909 221.660 C 148.677 221.783,149.306 222.038,149.306 222.226 C 149.306 222.415,149.774 222.569,150.347 222.569 C 150.920 222.569,151.389 222.726,151.389 222.917 C 151.389 223.108,151.936 223.264,152.604 223.264 C 153.273 223.264,153.819 223.420,153.819 223.611 C 153.819 223.802,154.132 223.958,154.514 223.958 C 154.896 223.958,155.208 224.097,155.208 224.266 C 155.208 224.657,156.690 224.960,160.405 225.332 C 162.022 225.494,163.402 225.798,163.472 226.007 C 163.542 226.217,163.821 226.389,164.091 226.389 C 164.362 226.389,164.583 226.545,164.583 226.736 C 164.583 226.959,167.882 227.083,173.785 227.083 C 179.688 227.083,182.986 226.959,182.986 226.736 C 182.986 226.545,183.442 226.389,183.999 226.389 C 184.556 226.389,185.077 226.194,185.156 225.956 C 185.252 225.668,186.309 225.482,188.310 225.400 C 189.965 225.332,191.319 225.136,191.319 224.964 C 191.319 224.793,191.601 224.653,191.945 224.653 C 192.721 224.653,194.438 223.877,194.442 223.524 C 194.443 223.381,194.913 223.264,195.486 223.264 C 196.059 223.264,196.528 223.108,196.528 222.917 C 196.528 222.726,197.075 222.569,197.743 222.569 C 198.411 222.569,198.958 222.726,198.958 222.917 C 198.958 223.108,199.583 223.264,200.347 223.264 C 201.378 223.264,201.736 223.404,201.736 223.810 C 201.736 224.621,202.613 225.347,203.593 225.347 C 204.912 225.347,205.556 225.701,205.556 226.426 C 205.556 226.788,205.790 227.083,206.076 227.083 C 206.363 227.083,206.597 227.240,206.597 227.431 C 206.597 227.622,207.155 227.778,207.837 227.778 C 209.051 227.778,210.069 228.400,210.069 229.142 C 210.069 229.346,210.554 229.514,211.145 229.514 C 211.893 229.514,212.518 229.832,213.194 230.556 C 213.730 231.128,214.495 231.597,214.896 231.597 C 215.297 231.597,215.625 231.753,215.625 231.944 C 215.625 232.135,215.937 232.292,216.319 232.292 C 216.705 232.292,217.014 232.523,217.014 232.813 C 217.014 233.099,217.248 233.333,217.535 233.333 C 217.821 233.333,218.056 233.490,218.056 233.681 C 218.056 233.872,218.623 234.028,219.317 234.028 C 220.504 234.028,221.875 234.987,221.875 235.817 C 221.875 235.979,222.639 236.111,223.573 236.111 C 225.096 236.111,225.295 236.201,225.490 236.979 C 225.630 237.540,225.951 237.847,226.396 237.847 C 226.774 237.847,227.083 238.003,227.083 238.194 C 227.083 238.385,227.630 238.542,228.299 238.542 C 229.247 238.542,229.514 238.682,229.514 239.180 C 229.514 239.992,230.889 240.625,232.655 240.625 C 233.410 240.625,234.028 240.792,234.028 240.997 C 234.028 241.660,234.997 242.361,235.913 242.361 C 236.404 242.361,236.806 242.517,236.806 242.708 C 236.806 242.899,237.196 243.056,237.674 243.056 C 238.310 243.056,238.542 243.241,238.542 243.750 C 238.542 244.213,238.773 244.444,239.236 244.444 C 239.618 244.444,239.931 244.601,239.931 244.792 C 239.931 244.983,240.470 245.139,241.130 245.139 C 241.947 245.139,242.607 245.416,243.198 246.007 C 243.809 246.618,244.443 246.875,245.343 246.875 C 246.135 246.875,246.833 247.113,247.181 247.502 C 248.368 248.827,249.459 249.306,251.293 249.306 C 252.727 249.306,253.125 249.424,253.125 249.851 C 253.125 250.790,254.062 251.389,255.531 251.389 C 256.308 251.389,256.944 251.556,256.944 251.761 C 256.944 252.461,257.936 253.125,258.982 253.125 C 259.558 253.125,260.125 253.281,260.243 253.472 C 260.361 253.663,260.839 253.819,261.305 253.819 C 261.921 253.819,262.153 254.009,262.153 254.514 C 262.153 254.977,262.384 255.208,262.847 255.208 C 263.229 255.208,263.542 255.357,263.542 255.539 C 263.542 255.721,264.518 255.916,265.712 255.973 C 267.577 256.062,267.930 256.186,268.225 256.858 C 268.495 257.474,268.851 257.639,269.908 257.639 C 270.950 257.639,271.466 257.871,272.222 258.681 C 272.821 259.321,273.543 259.722,274.098 259.722 C 274.594 259.722,275.000 259.878,275.000 260.069 C 275.000 260.260,275.863 260.417,276.918 260.417 C 278.645 260.417,278.870 260.503,279.167 261.285 C 279.465 262.069,279.686 262.153,281.449 262.153 C 283.145 262.153,283.523 262.282,284.322 263.136 C 284.989 263.848,285.712 264.184,286.938 264.351 C 287.980 264.493,288.865 264.850,289.236 265.277 C 289.567 265.660,290.172 265.972,290.579 265.972 C 290.986 265.972,291.319 266.128,291.319 266.319 C 291.319 266.510,292.179 266.667,293.229 266.667 C 294.594 266.667,295.139 266.799,295.139 267.132 C 295.139 267.873,296.738 268.403,298.975 268.403 C 300.121 268.403,301.042 268.557,301.042 268.750 C 301.042 268.941,301.432 269.097,301.910 269.097 C 302.546 269.097,302.778 269.282,302.778 269.792 C 302.778 270.332,303.009 270.486,303.819 270.486 C 304.392 270.486,304.861 270.642,304.861 270.833 C 304.861 271.024,305.545 271.181,306.381 271.181 C 307.309 271.181,308.070 271.384,308.333 271.701 C 308.571 271.988,309.059 272.222,309.418 272.222 C 309.776 272.222,310.069 272.378,310.069 272.569 C 310.069 272.775,311.343 272.917,313.194 272.917 C 315.804 272.917,316.319 273.007,316.319 273.462 C 316.319 274.472,317.258 275.000,319.052 275.000 C 320.009 275.000,320.889 275.156,321.007 275.347 C 321.125 275.538,321.826 275.694,322.565 275.694 C 323.304 275.694,324.143 275.929,324.430 276.215 C 324.716 276.502,325.274 276.736,325.670 276.736 C 326.065 276.736,326.389 276.892,326.389 277.083 C 326.389 277.288,327.604 277.431,329.340 277.431 C 332.060 277.431,332.292 277.485,332.292 278.125 C 332.292 278.581,332.523 278.819,332.966 278.819 C 333.336 278.819,333.736 278.976,333.854 279.167 C 334.136 279.622,347.907 279.622,348.611 279.167 C 348.898 278.982,349.054 278.819,348.958 278.806 C 348.863 278.793,346.907 278.581,344.611 278.334 C 342.316 278.088,339.894 277.631,339.229 277.319 C 338.565 277.007,336.349 276.432,334.306 276.041 C 332.263 275.649,329.971 275.110,329.214 274.843 C 328.456 274.576,327.080 274.253,326.157 274.126 C 325.234 274.000,323.629 273.588,322.589 273.212 C 321.549 272.836,319.261 272.240,317.503 271.886 C 315.745 271.532,313.940 271.006,313.490 270.716 C 313.041 270.426,311.502 269.875,310.069 269.493 C 308.637 269.111,306.762 268.558,305.903 268.266 C 303.349 267.396,299.976 266.323,297.569 265.614 C 296.328 265.248,294.453 264.566,293.403 264.098 C 292.352 263.630,290.790 263.013,289.931 262.729 C 286.906 261.726,282.494 260.034,282.134 259.739 C 281.934 259.575,280.833 259.175,279.688 258.851 C 278.542 258.527,277.270 258.051,276.861 257.794 C 276.138 257.338,275.404 257.051,269.617 254.954 C 268.088 254.401,266.448 253.700,265.971 253.398 C 265.494 253.096,264.226 252.600,263.153 252.296 C 262.080 251.992,261.019 251.523,260.795 251.253 C 260.571 250.983,259.987 250.662,259.497 250.539 C 258.363 250.254,254.631 248.550,245.139 243.980 C 242.943 242.923,240.262 241.730,239.181 241.328 C 238.100 240.927,237.026 240.370,236.795 240.091 C 236.563 239.812,236.229 239.583,236.052 239.583 C 235.684 239.583,234.292 238.911,230.486 236.897 C 229.015 236.118,227.218 235.292,226.492 235.059 C 225.767 234.827,224.861 234.356,224.479 234.013 C 224.097 233.670,223.082 233.117,222.222 232.785 C 221.363 232.453,220.444 232.011,220.179 231.803 C 219.609 231.353,217.573 230.260,214.931 228.985 C 213.880 228.479,212.786 227.857,212.500 227.604 C 212.214 227.351,211.120 226.691,210.069 226.136 C 208.126 225.111,206.212 224.037,204.340 222.922 C 203.767 222.581,202.908 222.183,202.431 222.039 C 201.953 221.895,201.019 221.330,200.355 220.784 C 199.691 220.238,198.907 219.792,198.613 219.792 C 198.318 219.792,197.534 219.430,196.869 218.988 C 196.204 218.545,195.157 217.982,194.543 217.735 C 193.928 217.488,193.238 217.060,193.008 216.783 C 192.778 216.506,192.080 216.066,191.456 215.806 C 190.833 215.545,189.024 214.483,187.436 213.446 C 185.848 212.408,184.050 211.263,183.439 210.901 C 178.365 207.890,176.263 206.573,174.367 205.217 C 173.160 204.353,171.676 203.350,171.069 202.989 C 170.462 202.627,169.418 201.986,168.750 201.563 C 168.082 201.141,166.519 200.153,165.278 199.368 C 164.036 198.583,162.474 197.535,161.806 197.039 C 161.137 196.543,159.653 195.518,158.507 194.762 C 157.361 194.006,155.588 192.805,154.566 192.093 C 153.544 191.381,152.205 190.486,151.590 190.104 C 150.975 189.722,150.014 189.050,149.455 188.610 C 146.929 186.624,145.716 185.764,145.439 185.764 C 145.275 185.764,144.555 185.256,143.838 184.635 C 143.121 184.015,142.274 183.351,141.956 183.160 C 141.077 182.633,137.868 180.341,136.111 178.986 C 135.252 178.324,133.924 177.369,133.160 176.864 C 132.396 176.360,130.990 175.290,130.035 174.486 C 129.080 173.682,127.908 172.821,127.431 172.572 C 126.953 172.324,125.859 171.538,125.000 170.827 C 124.141 170.115,122.266 168.665,120.833 167.603 C 119.401 166.542,117.760 165.279,117.188 164.797 C 116.615 164.315,115.052 162.999,113.715 161.874 C 110.344 159.035,109.487 158.654,107.960 159.313 M40.747 185.417 C 40.630 185.998,40.316 186.458,40.036 186.458 C 39.448 186.458,38.542 187.286,38.542 187.822 C 38.542 188.027,38.218 188.194,37.822 188.194 C 37.041 188.194,36.111 188.949,36.111 189.583 C 36.111 190.232,35.278 190.871,34.095 191.131 C 33.157 191.337,32.986 191.531,32.986 192.389 C 32.986 193.337,32.898 193.403,31.620 193.403 C 30.388 193.403,30.244 193.496,30.145 194.358 C 30.077 194.948,29.736 195.443,29.253 195.655 C 28.715 195.892,28.472 196.296,28.472 196.957 C 28.472 197.598,28.291 197.917,27.927 197.917 C 27.391 197.917,26.389 198.702,26.389 199.122 C 26.389 199.900,23.658 202.431,22.818 202.431 C 21.878 202.431,21.541 203.136,21.533 205.122 C 21.528 206.143,21.429 206.250,20.486 206.250 C 19.527 206.250,19.444 206.346,19.444 207.465 C 19.444 208.530,19.337 208.681,18.576 208.681 C 17.816 208.681,17.708 208.831,17.708 209.896 C 17.708 211.015,17.626 211.111,16.667 211.111 C 15.664 211.111,15.625 211.169,15.625 212.674 C 15.625 214.888,16.430 214.513,18.167 211.488 C 18.560 210.803,19.321 209.696,19.858 209.028 C 20.395 208.359,21.141 207.422,21.515 206.944 C 21.890 206.467,23.179 204.971,24.379 203.621 C 25.580 202.270,27.218 200.395,28.019 199.454 C 29.688 197.493,34.847 192.369,39.410 188.140 C 42.847 184.953,43.223 184.375,41.857 184.375 C 41.132 184.375,40.914 184.580,40.747 185.417 " stroke="none" fill="#d4dadb" fill-rule="evenodd"></path><path id="path2" d="M73.958 66.176 C 71.153 66.448,68.574 66.902,67.535 67.307 C 66.580 67.678,64.985 68.234,63.991 68.542 C 59.843 69.826,56.320 72.691,54.130 76.563 L 52.951 78.646 52.849 84.201 C 52.772 88.352,52.876 90.196,53.261 91.493 C 54.174 94.568,55.490 98.046,56.402 99.798 C 56.891 100.738,57.292 101.773,57.292 102.100 C 57.292 102.426,57.538 102.897,57.840 103.147 C 58.141 103.398,58.787 104.393,59.275 105.360 C 59.764 106.327,60.455 107.491,60.811 107.946 C 61.167 108.402,61.458 109.047,61.458 109.381 C 61.458 109.715,61.733 110.060,62.069 110.148 C 62.404 110.236,62.990 110.918,63.371 111.663 C 63.751 112.408,65.316 114.503,66.849 116.318 C 68.381 118.133,69.932 120.087,70.296 120.660 C 70.659 121.233,71.358 122.093,71.850 122.572 C 72.341 123.051,73.602 124.435,74.653 125.647 C 77.719 129.187,89.961 141.352,92.141 143.027 C 93.494 144.066,94.201 144.877,94.334 145.544 C 94.443 146.085,94.677 146.528,94.855 146.528 C 95.328 146.528,97.728 148.446,100.602 151.122 C 101.984 152.408,103.708 153.893,104.432 154.421 C 107.120 156.381,109.037 158.156,108.887 158.548 C 108.800 158.773,109.164 159.038,109.709 159.147 C 110.553 159.316,112.108 160.489,117.188 164.791 C 117.760 165.276,119.401 166.542,120.833 167.603 C 122.266 168.665,124.141 170.115,125.000 170.827 C 125.859 171.538,126.953 172.324,127.431 172.572 C 127.908 172.821,129.080 173.682,130.035 174.486 C 130.990 175.290,132.396 176.360,133.160 176.864 C 133.924 177.369,135.252 178.324,136.111 178.986 C 137.868 180.341,141.077 182.633,141.956 183.160 C 142.274 183.351,143.121 184.015,143.838 184.635 C 144.555 185.256,145.275 185.764,145.439 185.764 C 145.716 185.764,146.929 186.624,149.455 188.610 C 150.014 189.050,150.975 189.722,151.590 190.104 C 152.205 190.486,153.544 191.381,154.566 192.093 C 155.588 192.805,157.361 194.006,158.507 194.762 C 159.653 195.518,161.137 196.543,161.806 197.039 C 162.474 197.535,164.036 198.583,165.278 199.368 C 166.519 200.153,168.082 201.141,168.750 201.563 C 169.418 201.986,170.462 202.627,171.069 202.989 C 171.676 203.350,173.160 204.353,174.367 205.217 C 176.263 206.573,178.365 207.890,183.439 210.901 C 184.050 211.263,185.848 212.408,187.436 213.446 C 189.024 214.483,190.833 215.545,191.456 215.806 C 192.080 216.066,192.778 216.506,193.008 216.783 C 193.238 217.060,193.928 217.488,194.543 217.735 C 195.157 217.982,196.204 218.545,196.869 218.988 C 197.534 219.430,198.318 219.792,198.613 219.792 C 198.907 219.792,199.691 220.238,200.355 220.784 C 201.019 221.330,201.953 221.895,202.431 222.039 C 202.908 222.183,203.767 222.581,204.340 222.922 C 206.212 224.037,208.126 225.111,210.069 226.136 C 211.120 226.691,212.214 227.351,212.500 227.604 C 212.786 227.857,213.880 228.479,214.931 228.985 C 217.573 230.260,219.609 231.353,220.179 231.803 C 220.444 232.011,221.363 232.453,222.222 232.785 C 223.082 233.117,224.097 233.670,224.479 234.013 C 224.861 234.356,225.767 234.827,226.492 235.059 C 227.218 235.292,229.015 236.118,230.486 236.897 C 234.292 238.911,235.684 239.583,236.052 239.583 C 236.229 239.583,236.563 239.812,236.795 240.091 C 237.026 240.370,238.100 240.927,239.181 241.328 C 240.262 241.730,242.943 242.923,245.139 243.980 C 254.631 248.550,258.363 250.254,259.497 250.539 C 259.987 250.662,260.571 250.983,260.795 251.253 C 261.019 251.523,262.080 251.992,263.153 252.296 C 264.226 252.600,265.494 253.096,265.971 253.398 C 266.448 253.700,268.088 254.401,269.617 254.954 C 275.404 257.051,276.138 257.338,276.861 257.794 C 277.270 258.051,278.542 258.527,279.688 258.851 C 280.833 259.175,281.934 259.575,282.134 259.739 C 282.494 260.034,286.906 261.726,289.931 262.729 C 290.790 263.013,292.352 263.630,293.403 264.098 C 294.453 264.566,296.328 265.248,297.569 265.614 C 299.976 266.323,303.349 267.396,305.903 268.266 C 306.762 268.558,308.637 269.111,310.069 269.493 C 311.502 269.875,313.041 270.426,313.490 270.716 C 313.940 271.006,315.745 271.532,317.503 271.886 C 319.261 272.240,321.549 272.836,322.589 273.212 C 323.629 273.588,325.234 274.000,326.157 274.126 C 327.080 274.253,328.456 274.576,329.214 274.843 C 329.971 275.110,332.263 275.649,334.306 276.041 C 336.349 276.432,338.565 277.007,339.229 277.319 C 339.894 277.631,342.316 278.088,344.611 278.334 C 346.907 278.581,348.863 278.793,348.958 278.806 C 349.054 278.819,348.898 278.982,348.611 279.167 C 348.271 279.387,353.537 279.505,363.823 279.509 C 373.410 279.512,379.477 279.388,379.356 279.192 C 379.129 278.825,379.715 278.621,381.944 278.293 C 382.804 278.166,384.090 277.686,384.802 277.226 C 385.514 276.766,386.225 276.389,386.382 276.389 C 387.751 276.389,392.690 272.063,394.047 269.674 C 396.498 265.360,395.640 256.920,391.993 249.479 C 391.431 248.333,390.972 247.156,390.972 246.863 C 390.972 246.570,390.464 245.528,389.844 244.547 C 389.223 243.566,388.403 242.255,388.021 241.634 C 387.639 241.013,386.833 239.712,386.229 238.742 C 385.626 237.772,384.812 236.401,384.421 235.695 C 383.709 234.409,380.684 230.254,379.035 228.299 C 378.552 227.726,377.493 226.398,376.681 225.347 C 375.035 223.218,371.471 219.049,370.139 217.694 C 369.661 217.208,367.918 215.333,366.265 213.527 C 360.759 207.511,353.333 200.211,350.691 198.217 C 350.025 197.714,348.755 196.620,347.870 195.787 C 346.052 194.074,344.709 192.932,340.972 189.920 C 339.540 188.765,337.720 187.241,336.928 186.532 C 336.135 185.823,334.743 184.696,333.833 184.028 C 332.923 183.359,331.208 181.953,330.022 180.903 C 324.518 176.029,323.446 175.656,321.335 177.877 C 320.752 178.491,318.513 180.674,316.360 182.728 C 312.071 186.820,311.713 187.702,313.749 189.155 C 315.529 190.424,322.803 196.173,324.028 197.278 C 324.735 197.916,325.595 198.677,325.938 198.970 C 326.281 199.263,327.813 200.605,329.340 201.953 C 330.868 203.300,332.380 204.545,332.700 204.719 C 334.655 205.780,353.819 224.802,353.819 225.681 C 353.819 225.856,354.405 226.700,355.122 227.557 C 355.838 228.413,356.779 229.634,357.214 230.269 C 359.552 233.686,360.762 235.632,360.763 235.977 C 360.764 236.190,361.074 236.759,361.452 237.240 C 364.979 241.723,362.971 250.829,358.169 252.130 C 351.361 253.973,330.625 252.289,323.021 249.275 C 322.028 248.881,319.919 248.280,318.333 247.939 C 316.748 247.598,314.514 246.988,313.368 246.583 C 312.222 246.179,310.582 245.622,309.722 245.346 C 306.606 244.343,302.389 242.759,301.981 242.438 C 301.751 242.257,300.391 241.831,298.958 241.492 C 297.526 241.153,295.903 240.648,295.352 240.370 C 294.801 240.091,293.551 239.581,292.574 239.235 C 288.658 237.848,285.885 236.722,284.896 236.117 C 284.323 235.767,283.153 235.294,282.295 235.065 C 281.438 234.837,280.033 234.276,279.173 233.818 C 278.313 233.361,277.473 232.986,277.306 232.986 C 276.730 232.986,270.925 230.250,269.616 229.362 C 268.896 228.872,268.069 228.472,267.780 228.472 C 267.491 228.472,266.263 228.003,265.050 227.431 C 263.837 226.858,262.744 226.389,262.621 226.389 C 262.316 226.389,257.697 224.206,254.948 222.763 C 254.423 222.487,251.571 221.078,248.611 219.633 C 245.651 218.187,242.682 216.709,242.014 216.348 C 241.345 215.986,240.252 215.438,239.583 215.129 C 238.915 214.820,236.493 213.561,234.201 212.330 C 231.910 211.100,229.332 209.769,228.472 209.371 C 227.613 208.974,226.675 208.496,226.389 208.309 C 226.102 208.122,225.081 207.599,224.118 207.146 C 223.156 206.694,222.152 206.063,221.889 205.746 C 221.625 205.428,220.852 204.935,220.171 204.651 C 219.490 204.366,218.618 203.844,218.234 203.490 C 217.849 203.137,216.970 202.558,216.280 202.205 C 212.765 200.405,210.794 199.288,210.611 198.991 C 210.499 198.810,209.823 198.474,209.110 198.245 C 208.396 198.016,207.578 197.630,207.292 197.387 C 206.761 196.937,203.640 195.187,201.324 194.041 C 200.620 193.693,199.936 193.233,199.804 193.019 C 199.672 192.806,198.739 192.266,197.731 191.820 C 196.722 191.374,195.808 190.865,195.700 190.689 C 195.591 190.514,194.131 189.557,192.456 188.564 C 190.780 187.570,188.472 186.153,187.326 185.413 C 185.408 184.175,183.354 182.912,180.217 181.041 C 179.544 180.640,178.385 179.897,177.643 179.392 C 176.900 178.886,176.139 178.472,175.952 178.472 C 175.765 178.472,175.079 178.003,174.426 177.431 C 173.774 176.858,173.105 176.389,172.939 176.389 C 172.593 176.389,169.233 174.176,168.281 173.320 C 167.928 173.003,167.031 172.431,166.288 172.049 C 165.546 171.667,162.658 169.792,159.872 167.882 C 157.087 165.972,154.462 164.175,154.039 163.889 C 152.668 162.959,150.541 161.342,149.653 160.555 C 149.175 160.132,148.300 159.498,147.709 159.147 C 145.622 157.906,140.628 154.273,140.234 153.708 C 140.114 153.537,139.460 153.062,138.779 152.653 C 136.538 151.307,132.324 147.757,132.114 147.038 C 131.997 146.638,131.202 146.008,130.277 145.582 C 127.648 144.372,116.712 134.797,117.149 134.089 C 117.271 133.893,116.879 133.630,116.266 133.495 C 114.203 133.042,98.045 117.172,95.746 113.340 C 95.412 112.782,94.752 111.780,94.281 111.111 C 91.119 106.628,90.424 105.467,89.627 103.335 C 89.222 102.252,88.618 100.951,88.285 100.443 C 87.831 99.750,87.648 98.588,87.552 95.781 L 87.424 92.042 89.111 90.283 C 92.620 86.624,104.708 84.904,112.894 86.899 C 118.434 88.249,118.940 88.281,120.051 87.353 C 120.577 86.915,121.554 86.278,122.222 85.938 C 122.891 85.597,123.855 84.989,124.364 84.587 C 124.874 84.184,125.953 83.464,126.762 82.986 C 136.301 77.360,137.735 75.926,134.781 74.971 C 134.080 74.744,132.918 74.263,132.199 73.901 C 131.479 73.540,130.073 73.091,129.074 72.905 C 128.075 72.718,125.773 72.113,123.958 71.561 C 118.191 69.804,114.137 68.777,111.525 68.409 C 110.129 68.213,108.517 67.809,107.942 67.512 C 104.930 65.954,84.523 65.152,73.958 66.176 " stroke="none" fill="#eb851d" fill-rule="evenodd"></path></g></svg>